<svg width="1440" height="912" fill="none" xmlns="http://www.w3.org/2000/svg"><g clip-path="url(#clip0)"><g clip-path="url(#clip1)" stroke="#7669F9" stroke-width=".1" stroke-miterlimit="10"><path d="M446.825 574.866c131.885-235.1 426.862-339.267 632.635-85.184 131.17 162.165 162.81-30.544 257.59-196.368 265.21-463.401 235.99 3.625 317.11-404.62"/><path d="M445.654 573.793c129.517-234.328 422.169-340.25 632.506-83.94 133.1 162.678 157.37-34.764 253.92-201.187 264.81-459.024 245.86 7.941 328-395.812"/><path d="M444.778 572.914C571.929 339.357 861.766 231.724 1077 490.478c135.02 163.191 152.77-38.808 250.08-205.742 265.58-454.259 256.05 11.732 338.55-387.969"/><path d="M443.903 572.004c124.62-232.517 412.942-342.466 632.067-81.192 137.1 163.438 147.66-42.803 246.57-210.069 265.67-449.917 266.06 15.781 349.24-379.64"/><path d="M442.738 570.9C564.99 339.162 850.98 227.466 1074.65 490.953c139.02 163.944 142.72-47.057 242.73-214.61 266.09-445.359 276.38 20.044 360.24-371.099"/><path d="M441.867 569.998c119.891-230.965 403.563-344.41 631.773-78.707 141.1 164.193 137.64-51.047 239.06-219.413 266.04-440.771 286.38 24.088 370.93-362.789"/><path d="M440.999 569.099c117.368-229.926 398.54-345.594 631.121-77.421 143.01 164.698 132.71-55.294 235.56-223.729 266.46-436.218 296.35 28.127 381.58-354.476"/><path d="M439.836 567.973C554.84 338.83 833.85 221.9 1071.11 492.012c145.25 165.416 127.62-59.276 231.73-228.254 266.53-431.875 306.45 31.902 392.53-345.943"/><path d="M438.972 567.059C551.62 338.692 828.313 220.018 1070.1 492.338c147.15 165.922 122.71-63.517 228.06-233.043 266.47-427.291 316.26 36.196 403.17-337.647"/><path d="M437.815 565.943c110.128-227.322 384.65-347.993 630.785-73.219 149.05 166.421 117.63-67.492 224.56-237.341 266.54-422.951 326.18 40.225 413.77-329.341"/><path d="M436.954 565.023C544.728 338.48 816.93 216.071 1067.57 493.044c150.95 166.922 112.39-71.943 220.75-241.858 266.13-418.58 336.59 44.208 424.36-321.05"/><path d="M436.087 564.106c105.757-225.548 375.311-349.912 630.453-70.741 152.86 167.423 107.34-75.914 216.94-246.373 266.22-414.258 346.5 48.231 434.95-312.766"/><path d="M434.934 562.968c103.243-224.503 370.63-350.858 630.096-69.242 154.75 167.918 102.28-79.878 213.61-250.917 266.13-409.663 356.39 52.249 445.84-304.26"/><path d="M434.078 562.049c100.897-223.724 365.479-351.768 629.932-68.005 156.8 168.158 97.39-84.101 209.8-255.422 265.88-405.56 366.28 56.266 456.41-295.986"/><path d="M433.224 561.123c98.392-222.685 360.821-352.719 629.756-66.769 158.69 168.655 92.34-88.06 206-259.921 265.96-401.24 376.48 60.495 466.95-287.717"/><path d="M432.078 560.013c96.051-221.906 356.172-353.67 629.432-65.274 160.57 169.153 87.13-92.492 202.36-264.677 265.55-396.883 386.34 64.504 477.48-279.455"/><path d="M431.226 559.079c93.71-221.126 351.36-354.356 629.244-64.04 162.46 169.648 82.1-96.444 198.89-268.949 265.3-392.781 395.86 68.293 488-271.195"/><path d="M430.376 558.137c91.212-220.083 346.709-355.297 629.054-62.805 164.34 170.141 77.23-100.651 195.1-273.431 265.21-388.205 406.02 72.51 498.82-262.724"/><path d="M429.237 557.025c88.879-219.306 342.074-356.243 628.723-61.313 166.23 170.636 72.21-104.596 191.47-278.175 264.96-384.113 415.85 76.509 509.32-254.48"/><path d="M428.391 556.097C514.938 337.57 765.672 199.17 1056.61 495.8c167.94 171.389 66.86-108.755 188.01-282.437 264.71-380.023 426.15 80.461 519.81-246.242"/><path d="M427.548 555.175c84.06-217.49 332.326-358.086 628.052-59.066 169.81 171.882 62-112.953 184.23-286.912 264.3-375.678 435.95 84.453 530.28-238.01"/><path d="M426.414 554.045c81.731-216.709 327.696-359.022 628.186-57.619 171.69 172.372 56.67-117.103 180.46-291.378 263.71-371.805 445.73 88.44 540.72-229.782"/><path d="M425.573 553.108C504.98 337.18 748.489 193.41 1053.09 496.762c173.56 172.862 51.83-121.292 177.17-295.884 263.3-367.46 455.51 92.424 551.49-221.344"/><path d="M424.44 551.979c76.925-214.89 318.138-360.373 627.33-55.118 175.42 173.351 46.5-125.434 173.39-300.342 263.38-363.16 465.6 96.62 562.25-212.912"/><path d="M423.602 551.053c74.608-214.112 313.533-361.309 627.148-53.89 177.63 174.057 41.52-129.358 169.97-304.584 262.63-359.041 475.35 100.598 572.33-204.923"/><path d="M422.77 550.133c72.293-213.337 308.445-362.204 626.82-52.406 179.16 174.332 36.37-133.754 166.37-309.297 262.06-355.186 485.1 104.572 582.74-196.725"/><path d="M421.642 549.009c69.82-212.299 303.846-363.134 626.638-51.179 181.02 174.819 31.39-137.67 162.61-313.744 261.65-350.854 494.83 108.542 593.46-188.315"/><path d="M420.81 548.087c67.51-211.524 299.097-363.809 626.46-49.955 182.89 175.308 26.25-142.058 158.86-318.19 261.4-346.788 504.89 112.725 603.85-180.13"/><path d="M419.983 547.17c65.202-210.75 294.185-364.959 626.297-48.732 184.74 175.797 21.28-145.969 155.27-322.892 260.66-342.683 514.44 116.948 614.07-171.692"/><path d="M418.846 546.029c63.067-209.497 289.44-365.624 625.944-47.25 186.44 176.539 16.16-150.347 151.86-327.107 260.08-338.831 524.44 120.388 624.9-163.56"/><path d="M418.019 545.113c60.766-208.724 284.711-366.298 625.781-46.029 188.29 177.027 10.87-154.466 148.12-331.543 259.5-334.99 534.14 124.346 635.25-155.395"/><path d="M417.193 544.198c58.467-207.951 280.145-367.229 625.457-44.55 190.14 177.514 5.75-158.841 144.38-335.975 258.94-331.153 543.99 128.042 645.76-147.495"/><path d="M416.075 543.077c56.011-206.917 275.421-367.894 625.275-43.33 191.99 177.998.81-162.735 141.14-340.44 258.2-327.055 553.49 132.248 655.92-139.083"/><path d="M415.251 542.163c53.717-206.146 270.707-368.565 625.109-42.111 193.85 178.484-4.45-166.844 137.42-344.864 257.46-322.966 563.48 136.41 666.24-130.939"/><path d="M414.432 541.253c51.426-205.375 265.83-369.709 624.948-40.894 195.53 179.228-9.55-171.207 133.7-349.285 256.89-319.137 573.13 140.355 676.55-122.8"/><path d="M413.318 540.137c48.978-204.343 261.123-370.372 624.612-39.419 197.38 179.711-14.8-175.306 130.47-353.738 256.32-315.308 582.76 144.293 686.84-114.668"/><path d="M412.498 539.229c46.693-203.574 256.428-371.042 624.452-38.203 199.23 180.196-19.89-179.663 126.76-358.153 255.59-311.228 592.4 148.231 697.13-106.543"/><path d="M411.679 538.308c44.408-202.802 251.733-371.705 624.281-36.989 201.07 180.679-25.13-183.755 123.05-362.556 255.02-307.406 602.01 152.162 707.73-98.21"/><path d="M410.571 537.198c41.969-201.774 246.873-372.84 623.949-35.518 202.75 181.417-30.21-188.101 119.34-366.956 254.62-303.843 612.11 156.048 718.47-90.141"/><path d="M409.755 536.295c39.692-201.007 242.195-373.508 623.795-34.305 204.59 181.901-35.44-192.19 116.13-371.402 253.41-299.732 621.23 160.018 728.25-81.995"/><path d="M408.648 535.187c37.415-200.237 237.517-374.169 623.622-33.094 206.43 182.382-40.501-196.529 112.44-375.795 252.84-295.917 631.62 164.112 738.81-73.681"/><path d="M407.833 534.286c34.986-199.214 232.85-374.836 623.317-31.625 208.27 182.865-46.051-200.826 108.74-380.192 252.44-292.37 641.37 167.776 749.22-65.848"/><path d="M407.023 533.39c32.715-198.449 227.862-375.716 623.167-30.416 209.94 183.605-51.108-205.161 105.54-384.626 250.91-288.482 650.46 171.737 758.97-57.722"/><path d="M405.917 532.289c30.448-197.682 223.202-376.377 623.003-29.208 211.78 184.085-56.312-209.232 101.86-389.009 250.67-284.464 660.35 175.863 769.5-49.43"/><path d="M405.091 531.382c28.35-196.443 218.703-377.292 622.679-27.743 213.61 184.564-61.679-213.771 98.18-393.387 249.78-280.878 669.9 179.771 780.03-41.145"/><path d="M404.284 530.484c26.088-195.683 213.263-377.405 622.546-26.537 214.8 185.348-66.881-217.842 94.99-397.817 248.58-277.516 679.13 183.469 789.92-33.295"/><path d="M403.182 529.387c23.67-194.661 208.777-378.321 622.388-25.331 216.63 185.827-71.912-222.16 91.32-402.189 248.19-273.253 688.99 187.585 800.43-25.025"/><path d="M402.373 528.499c21.413-193.9 204.143-378.986 622.247-24.126 218.46 186.309-77.268-226.694 87.66-406.566 247.3-269.681 698.53 191.488 810.61-16.974"/><path d="M401.565 527.611c19.158-193.14 199.672-379.908 621.625-22.88 220.29 186.79-82.775-230.967 84.32-410.726 246.59-266.368 708.54 195.346 820.95-9.185"/><path d="M400.464 526.521c16.747-192.121 195.045-380.566 621.476-21.677 222.11 187.269-87.793-235.275 80.82-415.346 245.87-262.328 718.22 199.71 831.28-.678"/><path d="M399.663 525.638c14.497-191.362 190.259-381.7 621.337-20.475 224.26 187.963-93.456-240.011 77.17-419.712 244.67-258.979 727.73 203.603 841.44 7.353"/><path d="M398.857 524.757c12.248-190.604 185.646-382.364 621.043-19.018 226.09 188.444-98.618-244.061 73.52-424.076C1337.7-173.8 1830.82 288.9 1945.18 96.784"/><path d="M399.124 525.194c11.829-186.985 186.162-384.694 623.506-20.431 226.82 188.926-93.119-239.772 77.66-418.257 244.37-255.534 733.69 200.377 840.19 6.966"/><path d="M399.375 525.621c11.734-183.15 187.003-386.812 625.485-21.801 227.56 189.408-87.767-235.225 81.81-412.437 244.62-255.863 730.64 193.942 829.11-1.236"/><path d="M399.641 526.049c11.314-179.524 187.518-389.14 627.459-23.172 228.29 189.889-82.581-231.142 86.11-406.864 245.03-255.719 727.26 187.286 817.85-9.187"/><path d="M399.895 526.47c11.218-175.684 188.033-391.472 629.755-24.33 229.03 190.371-77.215-226.588 89.95-401.247 245.43-256.303 723.87 180.627 806.73-17.4"/><path d="M400.16 526.888c10.954-172.309 188.546-393.799 631.89-25.959 229.75 190.851-71.86-222.028 94.09-395.407 245.85-256.156 720.64 174.433 795.45-25.359"/><path d="M400.412 527.301c10.858-168.463 189.06-396.13 633.858-27.333 230.65 191.075-66.655-217.937 98.25-389.566 246.09-256.481 717.4 167.509 784.32-33.58"/><path d="M400.676 527.713c10.437-164.827 189.415-398.2 636.154-28.492 231.7 191.767-61.287-213.372 102.41-383.719 246.49-257.06 713.66 160.622 772.84-42.018"/><path d="M400.923 528.113c10.341-160.975 190.254-400.315 638.127-29.866 232.43 192.246-55.756-209.061 106.24-378.082 247.06-257.17 710.9 154.373 762.01-50.034"/><path d="M401.185 528.516c9.919-157.334 190.765-402.641 640.245-31.498 233.16 192.723-50.374-204.488 110.41-372.225 247.46-257.019 707.48 147.692 750.67-58.01"/><path d="M401.434 528.911c9.823-153.477 191.277-404.969 642.536-32.66 233.89 193.202-45.159-200.384 114.58-366.364 247.53-257.812 703.72 140.793 739.16-66.463"/><path d="M401.697 529.314c9.558-150.088 191.79-407.298 644.503-34.036 234.78 193.423-39.77-195.807 118.75-360.501 248.09-257.918 700.78 134.062 727.65-74.918"/><path d="M401.945 529.699c9.461-146.226 192.299-409.624 646.625-35.669 235.5 193.899-34.23-191.483 122.59-354.847 248.5-257.765 697.52 127.842 716.61-82.692"/><path d="M402.205 530.082c9.038-142.574 192.808-411.946 648.905-36.832 236.56 194.588-29.16-187.112 126.92-349.227 248.57-257.825 693.58 121.186 704.91-90.898"/><path d="M402.447 530.453c8.941-138.707 193.643-414.057 650.853-38.21 237.29 195.063-23.6-182.782 131.1-343.349 248.97-258.398 690.62 114.443 693.68-99.15"/><path d="M402.706 530.826c8.518-135.051 194.149-416.377 652.804-39.588 238.17 195.279-18.04-178.447 135.27-337.463 249.53-258.498 687.16 107.738 682.44-107.406"/><path d="M402.951 531.19c8.578-131.436 194.655-418.699 654.909-41.223 238.89 195.752-12.96-174.069 139.12-331.791 250.26-258.125 683.87 101.503 671.36-115.192"/><path d="M403.208 531.553c8.154-127.775 195.16-421.017 657.182-42.387 239.61 196.223-7.56-169.472 143.3-325.898C1454-95.64 1883.91 257.587 1863.45 39.6"/><path d="M403.451 531.902c8.057-123.898 195.664-423.335 659.119-43.767 240.33 196.695-2.14-164.872 147.48-320 250.87-259.004 677.07 87.819 648.49-131.933"/><path d="M403.708 532.254c7.633-120.232 196.008-425.393 661.382-44.931 241.38 197.378 3.1-160.741 151.33-314.313 251.09-259.313 673.75 80.843 637.21-140.2"/><path d="M403.946 532.596c7.534-116.351 196.838-427.497 663.474-46.569 242.1 197.849 8.52-156.137 155.52-308.41 251.64-259.408 670.1 74.38 625.75-148.213"/><path d="M404.203 532.943c7.11-112.683 197.34-429.812 665.417-47.95 242.81 198.318 14.09-151.787 159.69-302.501 251.87-259.715 666.94 67.87 614.13-156.7"/><path d="M404.443 533.273c7.012-108.796 197.84-432.125 667.667-49.115 243.69 198.528 19.19-147.391 163.88-296.588 252.09-260.022 663.27 60.669 602.49-165.192"/><path d="M404.697 533.603c6.586-105.123 198.338-434.435 669.593-50.496 244.4 198.994 24.77-143.036 167.89-291.143 252.64-260.11 659.92 54.411 591.33-172.996"/><path d="M404.937 533.916c6.645-101.49 198.833-436.743 671.663-52.134 245.11 199.458 30.2-138.42 172.08-285.222 253.02-259.94 656.57 48.151 579.83-181.016"/><path d="M405.19 534.233c6.22-97.813 199.329-439.048 673.9-53.3 246.15 200.137 35.46-134.274 176.27-279.296 252.91-260.455 652.87 40.942 568.15-189.512"/><path d="M405.424 534.54c6.121-93.92 200.152-441.142 675.816-54.683 246.86 200.602 40.89-129.654 180.45-273.369 253.46-260.54 649.35 34.204 556.81-197.796"/><path d="M405.676 534.839c5.695-90.238 200.642-443.44 677.864-56.321 247.73 200.804 46.49-125.289 184.32-267.649 253.99-260.622 646.46 27.892 545.6-205.606"/><path d="M405.912 535.133c5.596-86.341 201.135-445.742 680.098-57.487 248.44 201.265 51.59-120.88 188.5-261.715 254.2-260.92 642.59 20.934 533.91-214.107"/><path d="M406.163 535.419c5.17-82.656 201.622-448.037 681.987-58.869 249.13 201.722 57.18-116.51 192.68-255.774 254.73-260.996 639.36 14.404 522.52-222.39"/><path d="M406.399 535.702c5.229-79.013 201.954-450.077 683.881-60.25 249.84 202.181 62.62-111.882 196.54-250.048 255.43-261.334 636.29 7.614 511.46-230.465"/><path d="M406.649 535.982c4.803-75.326 202.44-452.37 686.251-61.675 250.86 202.854 67.73-107.465 200.73-244.102 255.14-261.582 632.23.908 499.56-238.71"/><path d="M406.881 536.258c4.703-71.424 203.257-454.454 688.139-63.058 251.57 203.313 73.34-103.092 204.92-238.156 255.68-261.66 628.68-5.844 487.84-247.217"/><path d="M407.13 536.519c4.276-67.734 203.738-456.74 690-64.44 252.43 203.508 78.79-98.456 209.27-232.46 255.87-261.947 625.42-12.382 476.26-255.247"/><path d="M407.363 536.774c4.176-63.827 204.22-459.028 692.207-65.606 253.11 203.962 84.05-94.293 213.12-226.722 256.4-262.019 621.83-19.135 464.83-263.536"/><path d="M407.611 537.028c3.749-60.134 204.7-461.31 694.219-67.245 253.81 204.413 89.5-89.656 217.31-220.765 256.43-262.045 618.08-25.633 453.24-271.568"/><path d="M407.843 537.263c3.808-56.483 205.178-463.591 696.077-68.627 254.5 204.863 95.1-85.274 221.49-214.803 256.95-262.113 614.97-32.434 441.8-279.857"/><path d="M408.09 537.504c3.38-52.789 205.654-465.87 698.25-69.793 255.19 205.312 100.55-80.633 225.68-208.841 256.97-262.867 611.03-39.406 430.02-288.36"/><path d="M408.318 537.732c3.281-48.878 206.459-467.932 700.102-71.174 256.36 205.718 105.82-76.465 229.53-203.092C1595.77.748 1945.86 217.257 1756.85-32.97"/><path d="M408.565 537.966c2.853-45.181 206.934-470.208 702.105-72.814 257.04 206.167 111.27-71.821 233.71-197.125 257.85-262.739 604.14-52.711 406.96-304.683"/><path d="M408.794 538.166c2.753-41.268 207.401-472.473 704.256-73.979 257.72 206.61 116.87-67.434 237.88-191.153 258.19-263.27 600.51-59.471 395.49-312.967"/><path d="M409.041 538.38c2.325-37.57 207.87-474.74 706.079-75.359 258.4 207.053 121.99-63.003 242.06-185.182 258.37-263.544 597.03-66.49 384.02-321.253"/><path d="M409.27 538.58c2.383-33.913 208.18-476.746 708.06-76.997 259.08 207.496 127.59-58.615 245.91-179.424 259.04-263.128 593.9-72.563 372.38-329.28"/><path d="M409.515 538.776c1.955-30.213 208.644-479.005 710.195-78.161 259.91 207.677 133.04-53.968 250.24-173.706 259.22-263.398 589.76-79.281 360.41-337.52"/><path d="M409.741 538.965c1.855-26.298 209.439-481.051 712.009-79.542 260.91 208.334 138.32-49.792 254.42-167.729 259.39-263.67 586.27-86.302 348.92-345.805"/><path d="M409.985 539.141c1.427-22.598 209.897-483.3 713.795-80.92 261.58 208.769 143.76-45.144 258.59-161.749 259.88-263.718 582.93-92.848 337.42-354.08"/><path d="M410.213 539.317c1.327-18.681 210.358-485.555 716.077-82.342 262.25 209.207 149.21-40.494 262.43-155.985C1648.77 37.005 1968 201.381 1714.49-61.113"/><path d="M410.456 539.486c.899-14.979 210.815-487.8 717.864-83.719 262.91 209.641 154.47-36.317 266.59-150.003 260.55-264.031 575.61-106.37 314.27-370.377"/><path d="M410.685 539.649c.956-11.321 211.272-490.048 719.645-85.098 263.57 210.076 159.92-31.667 270.76-144.02 260.71-264.295 571.94-113.132 302.77-378.654"/><path d="M410.927 539.796c.528-7.619 211.722-492.283 721.733-86.259 264.39 210.247 165.51-27.274 274.59-138.25 261.19-264.336 568.74-119.933 291.26-386.92"/><path d="M411.152 539.944c.429-3.701 212.505-494.309 723.668-87.894 265.37 210.894 170.62-22.839 278.75-132.266 261.35-264.596 564.9-126.436 279.59-394.933"/><path d="M411.394 540.086s212.953-496.54 725.416-89.271c266.03 211.323 176.22-18.445 282.9-126.279 261.84-264.635 561.21-133.193 268.08-403.197"/><path d="M410.514 539.499s213.288-495.586 723.746-91.078c266.01 210.588 178.68-16.464 285.04-124.511 261.35-264.589 557.64-131.902 271.53-400.565"/><path d="M409.631 538.906S623.254 44.278 1131.7 446.022c265.99 209.851 180.66-14.44 287.5-122.528 260.69-265.014 553.75-130.825 274.98-397.93"/><path d="M408.749 538.323s213.959-493.675 720.081-94.907c265.97 209.117 183.12-12.459 289.63-120.761 260.52-264.752 550.18-129.533 279.08-394.866"/><path d="M407.867 537.731S622.318 44.755 1126.1 440.544c265.95 208.38 185.59-10.478 291.77-118.993 260.19-264.23 546.77-127.767 283.02-391.542"/><path d="M406.689 536.94s215.112-491.8 716.721-98.519c265.93 207.642 187.72-8.713 294.07-116.751 259.84-265.17 542.86-127.421 286.46-389.637"/><path d="M405.807 536.347s215.446-490.842 714.873-100.8c265.92 206.906 190.03-6.473 296.2-114.983 259.52-264.648 539.3-125.396 290.41-386.312"/><path d="M404.925 535.747s215.776-489.88 713.195-102.605c265.89 206.168 192.49-4.493 298.65-112.999 259.03-264.598 535.4-124.319 293.85-383.675"/><path d="M404.044 535.175S620.161 46.242 1115.26 430.547c265.87 205.436 194.63-2.727 300.79-111.234 258.7-264.813 531.52-123.244 297.63-380.832"/><path d="M403.163 534.574S619.611 46.602 1112.69 428.14c265.86 204.698 197.09-.747 302.93-109.465 258.52-264.547 527.93-121.951 301.4-377.98"/><path d="M402.279 533.976s216.305-486.237 707.851-108.24c265.67 204.22 199.39 1.493 305.22-107.223 257.86-264.97 524.2-121.131 305-375.6"/><path d="M401.399 533.386S618.038 48.105 1107.24 423.124c265.66 203.484 201.53 3.258 307.36-105.456 257.69-264.706 520.47-119.58 309.1-372.536"/><path d="M400.516 532.785s216.97-484.319 704.164-112.066c265.47 203.004 203.99 5.238 309.81-103.473 257.03-265.13 516.57-118.503 312.55-369.898"/><path d="M399.341 531.985S616.64 48.631 1101.81 418.115c265.45 202.264 206.45 7.218 311.94-101.704 256.85-264.86 512.98-117.209 316.64-366.827"/><path d="M398.457 531.389s217.96-482.18 700.463-115.891c265.43 201.528 208.43 9.241 314.07-99.936 256.69-264.597 509.74-115.701 320.41-363.977"/><path d="M397.574 530.792s218.293-481.22 698.786-117.696c265.41 200.791 210.89 11.221 316.53-97.953 256.02-265.02 505.51-114.84 323.85-361.342"/><path d="M396.692 530.185s218.622-480.256 697.098-119.5c265.39 200.052 213.34 13.2 318.49-95.927 256.01-265.01 502.1-113.804 327.78-358.746"/><path d="M395.809 529.58S614.761 50.287 1091.05 407.803c265.36 199.313 215.48 14.965 320.62-94.159 255.68-264.485 498.53-111.779 331.71-355.419"/><path d="M394.928 528.986S614.213 50.651 1088.5 405.404c265.34 198.577 217.77 17.202 323.07-92.177 254.86-264.652 494.3-110.918 334.83-353"/><path d="M394.046 528.39S613.663 51.014 1085.61 402.788c265.32 197.84 220.23 19.182 325.2-90.41 254.52-264.86 490.73-109.626 338.93-349.935"/><path d="M393.161 527.777S613.434 51.582 1083.03 400.371c264.97 196.886 222.36 20.946 327.32-88.641 254.35-264.592 487.16-108.332 342.69-347.08"/><path d="M391.987 526.959S612.582 51.738 1080.15 397.753c265.26 196.357 224.81 22.924 329.61-86.399 254-264.791 483.72-107.295 346.59-344.477"/><path d="M391.105 526.361S612.032 52.1 1077.26 395.136c265.24 195.621 227.11 25.161 331.73-84.632 253.99-264.784 480.15-106.003 350.37-341.627"/><path d="M390.222 525.746S611.476 52.452 1074.69 392.719c265.2 194.88 229.23 26.925 334.18-82.649 253.16-264.945 476.08-104.666 353.79-338.986"/><path d="M389.34 525.138s221.74-472.587 682.78-134.83c265.18 194.142 231.69 28.903 336.3-80.881 252.66-264.892 472.17-103.588 357.56-336.134"/><path d="M388.458 524.518S610.523 52.901 1069.21 387.672c265.15 193.401 234.14 30.881 338.74-78.897 252.65-264.88 468.6-102.295 361.32-333.277"/><path d="M387.572 523.913s222.724-470.44 679.068-138.649c265.13 192.662 236.11 32.902 340.71-76.873 252.3-265.086 464.85-101.476 364.91-330.9"/><path d="M386.69 523.292s223.047-469.47 677.37-140.45c265.1 191.922 238.56 34.88 342.82-75.105 251.8-265.03 461.27-100.181 368.66-328.042"/><path d="M385.807 522.677S609.181 54.174 1061.31 379.953c265.07 191.181 241.02 36.857 345.27-73.123 251.14-264.716 457.04-98.587 372.26-324.929"/><path d="M384.632 521.845S608.324 54.323 1058.41 377.324c265.04 190.436 243.14 38.618 347.38-71.354 251.12-264.697 453.78-97.076 376.33-321.851"/><path d="M383.75 521.224s224.174-466.81 671.76-146.535c265 189.695 245.42 40.853 349.81-69.372 250.62-264.642 450.2-95.783 379.76-319.21"/><path d="M382.867 520.602s224.498-465.84 670.053-148.335c264.98 188.953 247.87 42.829 351.93-67.605 250.11-264.585 446.29-94.705 383.51-316.355"/><path d="M381.982 519.969s225.147-464.65 668.348-150.133c264.94 188.211 249.99 44.59 353.88-65.579 249.76-264.784 442.7-93.41 387.41-313.754"/><path d="M381.1 519.339s225.468-463.676 666.31-152.146c265.07 187.21 252.44 46.566 356.32-63.597 249.74-264.768 438.94-92.59 391.16-310.897"/><path d="M380.215 518.702S606.16 55.745 1044.82 364.759c265.02 186.466 254.39 48.584 358.42-61.829 249.23-264.707 435.19-91.037 394.9-308.037"/><path d="M379.334 518.075s226.267-461.984 662.896-155.74c265 185.724 256.84 50.559 360.53-60.063 248.89-264.908 431.29-89.959 398.32-305.396"/><path d="M378.451 517.432S605.035 56.428 1039.3 359.681c264.96 184.98 259.28 52.534 362.96-58.08 248.38-264.845 427.7-88.664 402.06-302.535"/><path d="M377.275 516.585S604.33 56.309 1036.4 357.041c264.91 184.233 261.38 54.292 364.89-56.054 248.34-264.822 424.25-87.627 406.27-299.714"/><path d="M376.39 515.934s227.697-459.078 657.4-161.337c264.87 183.486 263.66 56.523 367.32-54.073 247.5-264.973 420.33-86.547 409.67-297.067"/><path d="M375.507 515.295s228.014-458.1 655.513-163.605c264.84 182.742 266.1 58.496 369.43-52.307 247.31-264.697 416.58-84.995 413.24-293.95"/><path d="M374.623 514.636S603.108 57.265 1028.41 349.239c264.79 181.995 268.2 60.254 371.51-50.539 246.81-264.63 412.99-83.701 416.98-291.088"/><path d="M373.738 513.972s228.8-456.39 651.742-167.405c264.91 180.993 270.63 62.226 373.94-48.558 246.44-264.825 409.06-82.621 420.86-288.485"/><path d="M372.854 513.31S602.117 57.658 1022.85 344.118c264.85 180.241 272.9 64.453 375.86-46.534 246.41-264.796 405.45-81.325 424.57-285.617"/><path d="M371.968 512.63S601.864 58.188 1020.21 341.65c264.81 179.491 275 66.208 378.27-44.552 245.89-264.724 401.7-79.771 427.96-282.964"/><path d="M371.085 511.974S601.767 57.743 1017.28 338.989c265.08 178.228 277.42 68.178 380.35-42.787 245.38-264.659 397.78-78.692 431.68-280.104"/><path d="M369.908 511.084s230.98-453.225 644.422-174.767c265.03 177.474 279.84 70.145 382.43-41.02 245.33-264.624 394.49-77.181 435.7-277.017"/><path d="M369.023 510.398S600.306 58.171 1011.7 333.846c264.97 176.723 281.77 72.156 384.82-39.04C1641 30.041 1786.75 218.492 1835.6 20.443"/><path d="M368.139 509.714S599.882 58.226 1008.74 331.162c264.91 175.972 284.18 74.123 386.89-37.274 244.29-264.477 386.95-74.805 442.78-271.497"/><path d="M367.254 509.013S599.295 58.53 1006.09 328.68c264.85 175.218 286.6 76.088 389.13-35.037 243.59-264.871 382.84-74.195 446.3-269.099"/><path d="M366.364 508.294S599.02 59.046 1003.41 326.187c264.78 174.457 288.66 77.835 391.18-33.272 243.37-264.57 379.05-72.639 450.13-265.748"/><path d="M365.48 507.583s232.954-448.247 635.12-184.36c264.72 173.705 290.92 80.057 393.24-31.507 242.85-264.495 375.45-71.345 453.83-262.881"/><path d="M364.592 506.843S597.838 59.61 997.931 320.706c264.659 172.948 293.319 82.02 395.619-29.528 242.8-264.453 371.83-70.048 457.34-260.48"/><path d="M364.889 507.17S597.711 61.384 996.573 322.384c36.647 24.048 68.677 42.9 97.247 57.674 174.98 89.546 209.5 10.755 298.17-83.771 62.56-66.894 107.28-105.422 155.97-127.983 84.05-39.074 145.16-33.989 199.81-49.037 39.49-10.546 74.97-29.505 100.88-89.758"/><path d="M365.479 507.696S598.214 63.559 996.018 324.214c36.332 23.837 68.212 42.95 96.782 57.726 172.92 89.989 208.93 12.516 298.12-80.607 65.94-68.663 102.39-108.659 153.19-131.652 85.05-38.435 141.57-37.816 198.31-54.024 40.46-11.363 79.39-27.705 104.18-87.624"/><path d="M365.774 508.001S598.411 65.528 995.139 325.828c36.011 23.625 67.891 42.74 96.311 57.775 171.01 90.171 208.67 14.494 298.39-77.224 68.84-70.387 97.49-111.893 150.07-135.532 85.72-38.01 138.3-41.428 197.13-58.796 41.43-12.18 84.14-25.69 107.8-85.272"/><path d="M366.364 508.522S598.585 67.488 994.093 327.697c36.017 23.628 67.417 42.789 95.847 57.827 169.25 90.098 208.41 16.471 298.33-74.057 71.9-72.372 92.12-115.089 147.14-138.945 86.54-37.844 135.02-45.042 195.96-63.571 42.55-13.254 89.19-24.188 111.41-83.651"/><path d="M366.659 508.836S598.786 69.463 993.223 329.321c35.697 23.416 66.947 42.837 95.377 57.877 167.34 90.281 208.16 18.449 298.6-70.674 75.29-74.14 87.22-118.326 144.35-142.614 87.21-37.418 131.75-48.655 194.61-68.818 43.37-13.814 93.78-21.914 114.55-81.256"/><path d="M367.249 509.352S598.957 71.42 992.17 331.186c35.37 23.205 66.63 42.629 94.91 57.929 165.59 90.207 208.23 20.642 299.03-67.548 78.35-76.125 82.32-121.566 141.24-146.5 87.88-36.994 128.32-52.014 193.44-73.596 44.33-14.632 98.2-20.111 118.17-78.904"/><path d="M367.545 509.659S599.162 73.385 991.309 332.801c35.051 22.993 66.161 42.678 94.441 57.979 163.35 90.178 207.98 22.622 298.98-64.378 81.74-77.895 77.42-124.805 138.45-150.172 88.71-36.827 125.04-55.63 192.26-78.375 45.3-15.449 103.12-18.35 121.63-77.023"/><path d="M368.131 510.16S599.647 75.557 990.71 334.615c35.06 22.996 65.84 42.467 94.14 58.501 161.59 90.101 208.05 24.816 299.24-60.99 84.8-79.879 72.19-128.258 135.32-154.056 89.39-36.401 121.77-59.246 190.76-83.367 46.26-16.267 107.86-16.332 125.25-74.667"/><path d="M368.431 510.492S599.53 77.329 989.371 336.296c34.579 23.043 65.369 42.517 93.669 58.554 159.84 90.027 208.12 27.01 299.19-57.82 88.19-81.651 67.29-131.5 132.54-157.731 90.21-36.234 118.48-62.864 189.74-88.406 47.56-16.87 112.61-14.313 128.55-72.529"/><path d="M369.018 511.001S600.024 79.499 988.795 338.115c34.255 22.831 65.055 42.308 93.205 58.604 157.92 90.212 207.87 28.992 299.45-54.431 91.59-83.423 62.39-134.743 129.27-161.364 90.88-35.809 115.05-66.225 188.56-93.188 48.53-17.688 117.2-12.766 132.01-70.646"/><path d="M369.316 511.323S599.902 81.267 987.603 339.531c34.267 22.834 64.577 42.357 92.737 58.655 156.17 90.138 207.94 31.188 299.72-51.042 94.66-85.41 57.49-137.987 126.47-165.04 91.24-35.598 111.77-69.846 187.07-98.186 49.49-18.507 121.95-10.746 135.63-68.29"/><path d="M369.903 511.845S600.401 83.445 986.88 341.62c33.94 22.622 64.26 42.148 92.27 58.707 154.41 90.064 208.01 33.385 299.67-47.869 98.05-87.184 52.25-141.448 123.68-168.719 92.07-35.431 108.49-73.468 185.89-102.972 50.3-19.8 126.55-9.199 138.77-66.623"/><path d="M370.199 512.134S600.594 85.41 985.984 343.224c33.616 22.409 63.786 42.195 91.796 58.756 152.65 89.987 208.41 35.796 299.93-44.477 101.45-88.954 47.34-144.688 120.55-172.606 92.74-35.005 105.21-77.087 184.86-108.012 51.44-20.145 131.48-6.705 142.57-63.791"/><path d="M370.79 512.678S600.775 87.387 984.954 345.117c33.296 22.198 63.316 42.245 91.326 58.809 150.74 90.174 208.5 37.996 299.89-41.302 104.85-90.731 42.1-148.154 117.77-176.291 93.56-34.838 101.76-80.455 183.36-113.019 52.41-20.964 136.07-5.155 146.04-61.908"/><path d="M371.086 512.983S600.973 89.362 984.072 346.736c33.308 22.2 62.998 42.035 90.858 58.859 148.98 90.098 208.56 40.194 300.31-38.168 108.25-92.503 37.19-151.398 114.64-180.182 94.07-34.885 98.48-84.079 182.18-117.806 53.54-21.31 140.83-3.133 149.51-59.291"/><path d="M371.677 513.508s229.47-422.18 611.505-165.154c32.978 21.989 62.528 42.084 90.388 58.911 146.89 89.81 208.48 42.652 300.26-34.99 111.49-94.021 32.28-154.648 111.69-183.608 94.74-34.46 95.19-87.704 180.83-123.07 54.85-21.916 145.93-.895 153.15-56.933"/><path d="M371.975 513.847S601.358 93.324 982.172 350.26c32.658 21.778 62.208 41.876 89.928 58.963 145.13 89.739 208.88 45.068 300.54-31.596 114.89-95.797 27.02-158.115 108.56-187.508 95.58-34.293 91.75-91.075 179.65-127.864 55.65-23.21 150.21.44 156.3-55.263"/><path d="M372.561 514.314S601.843 95.466 981.57 352.044c32.67 21.779 61.73 41.923 89.78 59.227 143.37 89.662 208.95 47.268 300.8-28.2 118.29-97.571 22.11-161.361 105.76-191.187 95.92-34.08 88.45-94.698 178.47-132.653 56.62-24.028 154.97 2.464 159.76-53.374"/><path d="M372.86 514.661S601.723 97.259 980.382 353.487c32.188 21.826 61.418 41.714 89.148 59.537 141.61 89.589 209.36 49.685 300.75-25.019 121.7-99.348 16.86-164.828 102.96-194.873 96.76-33.913 85.17-98.327 176.96-137.663 57.6-24.85 159.75 4.488 163.41-51.014"/><path d="M373.449 515.174s228.772-415.738 606.2-159.604c31.861 21.614 60.941 41.764 88.681 59.589 139.85 89.514 209.43 51.886 301.02-21.623 125.11-101.124 11.94-168.08 99.83-198.773 97.26-33.96 81.88-101.957 175.62-142.933 58.89-25.454 164.67 6.256 167.04-48.652"/><path d="M373.748 515.503s228.347-414.284 604.697-158.504c31.545 21.401 60.625 41.553 88.205 59.639 137.76 89.224 209.83 54.304 300.97-18.44 128.84-102.685 6.84-171.804 96.86-202.199 97.94-33.534 78.43-105.328 174.76-147.513 59.87-26.275 169.12 8.066 170.36-46.505"/><path d="M374.336 516.019s228.261-412.627 603.39-156.936c31.544 21.405 60.144 41.603 87.744 59.692 135.99 89.152 210.08 56.981 301.24-15.042 132.26-104.464 1.92-175.061 93.74-206.106 98.61-33.108 75.13-108.961 173.25-152.53 61-27.353 174.55 9.792 174-44.874"/><path d="M374.633 516.33s228.165-410.957 602.214-155.62c31.223 21.192 59.833 41.393 87.273 59.742 134.23 89.077 210.15 59.185 301.51-11.642 135.83-105.767-3.34-178.529 90.93-209.792 99.12-33.155 71.68-112.334 172.07-157.327 61.97-28.175 178.67 11.387 177.32-42.727"/><path d="M375.224 516.851s227.752-409.516 600.74-154.524c30.906 20.98 59.356 41.442 86.806 59.795 132.47 89.004 210.56 61.606 301.62-8.716 139.25-107.548-8.26-181.789 87.8-213.702 99.96-32.988 68.72-115.755 171.06-162.39 62.79-28.74 183.62 13.888 180.81-40.106"/><path d="M375.522 517.182s227.181-407.071 599.407-152.951c30.911 20.983 59.041 41.233 86.331 59.846 130.86 88.671 210.96 64.026 301.9-5.314 142.98-109.11-13.53-185.26 84.99-217.391 100.3-32.776 65.42-119.388 169.54-167.407 64.09-29.344 188.07 15.702 184.13-37.955"/><path d="M376.112 517.703S602.88 112.074 974.045 365.848c30.585 20.771 58.565 41.283 85.865 59.899 128.77 88.383 211.21 66.707 301.85-2.127 146.41-110.892-18.46-188.522 82.19-221.088 101.14-32.609 61.96-122.768 168.36-172.215C1677.38.15 1805.34 47.79 1799.93-5.748"/><path d="M376.408 518.001S603.07 114.057 973.137 367.467c30.103 20.816 58.243 41.071 85.713 60.163 127 88.305 211.61 69.126 302.11 1.276 149.99-112.193-23.73-191.987 78.89-224.728 101.64-32.654 58.66-126.398 167.17-177.012 66.04-30.988 197.8 19.5 191.25-33.698"/><path d="M376.997 518.515s226.571-402.277 595.406-148.96c29.777 20.603 57.767 41.12 85.247 60.214 125.23 88.231 212.01 71.549 302.38 4.681 153.73-113.758-28.66-195.247 76.08-228.422 102.31-32.228 55.36-130.036 165.81-182.293 66.86-31.552 202.26 21.314 194.58-31.547"/><path d="M377.298 518.86s226.155-400.832 593.925-147.862c29.787 20.606 57.447 40.911 84.777 60.267 123.62 87.9 211.93 74.016 302.34 7.87 157.48-115.325-33.78-198.985 72.94-232.337 102.82-32.276 51.9-133.418 164.63-187.104 67.84-32.376 207.22 23.086 198.24-29.18"/><path d="M377.887 519.37s226.062-399.162 592.596-146.287c29.462 20.394 56.977 40.96 84.307 60.318 121.85 87.826 212.33 76.441 302.61 11.277 161.07-116.632-39.05-202.462 70.13-236.032 103.66-32.108 48.59-137.058 163.12-192.13 69.14-32.981 212 25.118 201.72-27.286"/><path d="M378.479 519.923s225.647-397.718 591.118-145.189c29.139 20.182 56.653 40.751 83.673 60.63 120.25 87.494 212.75 78.867 302.57 14.468 164.83-118.201-43.99-205.729 66.99-239.95 104.01-31.897 45.29-140.701 161.94-196.944 70.12-33.806 216.81 27.15 205.06-25.134"/><path d="M378.774 520.208s225.553-396.046 589.943-143.871c28.816 19.969 56.343 40.54 83.203 60.68 118.15 87.204 213.15 81.292 303 17.618 168.42-119.507-49.27-209.206 64.17-243.646C1523.94 179.261 1460.92 66.905 1580 8.975c71.1-34.628 221.43 28.708 208.72-22.764"/><path d="M379.366 520.768s225.465-394.382 588.298-142.513c28.822 19.972 55.866 40.589 82.736 60.733 116.38 87.13 213.4 83.977 302.95 20.811 172.17-121.076-54.54-212.69 61.2-247.09 105.36-31.776 38.85-147.512 159.4-207.045 72.07-35.453 226.23 30.74 212.05-20.611"/><path d="M379.664 521.067s225.517-393.698 587.121-141.193c28.498 19.758 55.545 40.379 82.255 60.783 114.77 86.797 213.81 86.404 303.23 24.221 175.92-122.642-59.49-215.952 58.05-251.004 106.04-31.347 35.54-151.154 158.21-211.857 73.54-36.32 231.52 32.73 215.88-18.5"/><path d="M380.254 521.567s225.42-392.022 585.939-139.874c28.174 19.545 55.067 40.427 81.787 60.834 113.15 86.462 214.05 89.089 303.49 27.632 179.52-123.949-64.61-219.691 55.23-254.702 106.55-31.394 32.08-154.537 157.03-216.67 74.35-36.884 235.82 34.805 219.2-16.344"/><path d="M380.553 521.931s225.01-390.582 584.314-138.518c28.18 19.549 54.753 40.219 81.643 61.105 111.39 86.39 214.47 91.52 303.46 30.828 183.46-125.047-69.9-223.182 52.09-258.629 107.38-31.227 28.76-158.19 155.67-221.972 75.34-37.709 240.47 36.368 222.55-14.188"/><path d="M381.142 522.414S606.05 133.516 964.259 385.219c27.855 19.335 54.431 40.007 81.171 61.154 109.44 85.838 214.86 93.946 303.72 34.24 187.21-126.612-74.85-226.443 49.26-262.325 107.74-31.014 25.45-161.83 154.48-226.783 76.32-38.532 245.27 38.401 226.21-11.815"/><path d="M381.442 522.78s224.665-386.977 581.479-135.836c27.532 19.123 53.949 40.057 80.699 61.207 107.67 85.766 215.45 96.853 303.67 37.439 191.15-127.709-80.13-229.934 45.97-265.993 108.24-31.061 21.97-165.223 153.29-231.609 77.3-39.357 250.09 40.438 229.72-9.917"/><path d="M382.034 523.293s224.247-385.526 580.319-134.518c27.209 18.909 53.637 39.847 80.227 61.259 106.06 85.433 215.53 99.069 303.96 40.855 194.91-129.28-85.27-233.683 43.14-269.703 109.08-30.893 18.66-168.875 151.78-236.65 78.44-40.441 254.89 41.74 233.22-8.018"/><path d="M382.33 523.581s224.149-383.844 579.131-133.196c27.054 19.171 53.149 39.896 79.749 61.31 104.44 85.098 216.26 101.714 304.39 44.011 198.84-130.372-90.23-236.949 40.31-273.403 109.44-30.681 15.52-172.046 150.75-241.727 79.59-40.791 259.53 44.035 236.72-5.385"/><path d="M382.922 524.138s223.734-382.397 577.491-131.836c26.731 18.959 52.837 39.686 79.287 61.363 102.82 84.766 216.51 104.407 304.34 47.213 202.78-131.471-95.53-240.443 37.16-277.334 110.28-30.513 12.2-175.701 149.56-246.558 80.9-41.401 264.36 46.073 240.08-3.226"/><path d="M383.22 524.463S606.863 143.74 959.54 393.948c26.406 18.745 52.52 39.475 78.65 61.674 101.05 84.69 216.92 106.839 304.62 50.629 206.72-132.566-100.82-243.932 34.34-281.043 110.78-30.559 8.87-179.352 148.04-251.6 81.88-42.226 269.33 47.853 243.58-1.324"/><path d="M383.811 525.001s223.563-379.064 574.85-129.415c26.412 18.748 52.039 39.526 78.179 61.728 99.44 84.36 217.18 109.536 304.58 53.834 210.84-133.925-105.96-247.69 31.19-284.979 111.63-30.392 5.4-182.754 147.02-256.696 82.87-43.054 273.83 49.677 247.26 1.051"/><path d="M384.111 525.315s223.131-377.594 573.495-127.831c26.086 18.534 51.714 39.314 77.704 61.778 97.81 84.023 217.58 111.967 304.85 57.252 214.77-135.018-110.93-250.959 28.19-288.424 112.63-30.48 2.57-186.445 145.98-261.776 83.69-43.62 278.64 51.714 250.61 3.213"/><path d="M384.701 525.837s223.041-375.921 572.326-126.51c25.762 18.321 51.403 39.104 77.563 62.046 96.19 83.69 217.83 114.661 305.12 60.673 218.72-136.115-116.23-254.453 25.04-292.354 112.49-30.225-.91-189.842 144.3-266.565 84.51-44.92 283.3 53.28 254.12 5.116"/><path d="M385 526.163s222.619-374.462 570.824-125.404c25.437 18.107 51.076 38.893 77.086 62.098 94.58 83.355 218.57 117.312 305.07 63.878 222.66-137.212-121.53-257.946 22.21-296.067 113.34-30.057-4.4-193.24 143.11-271.397 85.99-45.056 288.45 55.535 257.8 7.494"/><path d="M385.591 526.684S608.119 153.896 955.087 402.86c25.442 18.111 50.603 38.943 76.613 62.151 92.96 83.021 218.82 120.008 305.35 67.301 226.61-138.31-126.68-261.701 19.38-299.783 113.85-30.104-7.72-196.898 141.75-276.707 86.97-45.882 292.94 57.36 261.15 9.657"/><path d="M385.89 527.017s222.438-371.113 567.997-122.718c25.117 17.897 50.283 38.732 76.143 62.203 91.33 82.688 219.23 122.446 305.46 70.25 230.89-139.192-131.66-264.982 16.21-303.717 114.53-29.675-11.05-200.557 140.56-281.543 88.13-46.234 298.11 59.618 265.01 12.512"/><path d="M386.481 527.553s222.022-369.66 566.68-121.137c24.792 17.684 49.959 38.522 75.669 62.256 89.56 82.614 219.48 125.145 305.75 73.675 234.84-140.292-137.15-268.959 13.38-307.439 115.04-29.723-14.54-203.961 139.37-286.385 88.61-47.753 302.44 60.97 267.86 13.985"/><path d="M386.781 527.887s221.932-367.985 565.511-119.815c24.638 17.946 49.488 38.571 75.198 62.309 87.93 82.28 219.89 127.585 305.7 76.884 239.12-141.174-142.13-272.242 10.05-311.115 115.56-29.771-17.86-207.623 137.85-291.44 89.93-48.365 307.61 63.228 272.05 16.322"/><path d="M387.371 528.409s254.159-420.411 638.569-56.088c86.32 81.946 220.48 130.501 305.99 80.312 243.08-142.273-147.45-275.743 7.22-314.836 116.4-29.601-21.2-211.286 136.81-296.54 91.24-48.977 312.27 64.797 275.4 18.488"/><path d="M935.741 167.44c-137.099 256.52-417.736 406.819-593.36 183.541-111.934-142.53-153.232 55.892-251.567 237.097-275.111 506.432-219.157 32.916-319.738 455.442"/><path d="M936.948 168.056c-134.92 255.483-413.656 407.25-593.486 182.357C229.703 207.612 194.946 409.727 94.884 591.88c-274.621 502.18-228.195 30.128-329.501 448.47"/><path d="M937.854 168.499c-132.742 254.445-409.111 407.56-593.446 180.884-115.583-143.073-144.559 62.69-245.423 245.551-275.189 497.716-237.565 27.914-339.002 442.416"/><path d="M938.76 168.935c-130.398 253.12-405.662 408.401-593.575 179.7-117.574-143.058-140.14 65.945-242.566 249.469C-172.544 1091.69-144.153 623.516-246.018 1034"/><path d="M939.968 169.543C811.749 421.627 538.386 578.379 346.263 348.059c-119.399-143.331-135.885 69.49-239.411 253.557-275.435 489.294-256.277 22.742-358.571 429.214"/><path d="M940.874 169.981c-126.04 251.046-397.501 409.267-593.832 177.33-121.39-143.315-131.465 72.747-236.421 257.931-275.243 484.878-265.485 20.24-368.207 422.688"/><path d="M941.78 170.418C818.085 420.14 548.657 580.287 348.282 346.444c-123.216-143.589-127.21 76.292-233.563 261.851-275.516 480.585-274.695 17.737-377.847 416.175"/><path d="M942.989 171.02C821.473 419.707 553.814 580.871 349.063 345.695c-125.341-144.03-122.79 79.551-230.409 265.942-275.491 476.453-284.073 15.521-387.785 409.493"/><path d="M943.895 171.454C824.559 419.104 558.802 581.74 349.84 344.945c-127.166-144.303-118.533 83.097-227.418 270.319-275.299 472.036-293.118 12.729-397.425 402.966"/><path d="M945.104 172.057C828.113 418.384 564.091 582.781 351.083 344.076 222.09 199.499 236.971 430.434 126.522 618.32c-275.275 467.91-302.332 10.226-407.067 396.45"/><path d="M946.011 172.49C831.199 417.78 569.079 583.649 351.86 343.324 221.039 198.473 242.301 433.397 130.455 621.66c-274.787 463.66-312.01 7.841-416.711 389.93"/><path d="M946.917 172.922c-112.929 244.086-372.849 411.595-594.281 169.65C219.989 197.447 247.501 435.906 134.388 625c-274.761 459.52-321.225 5.336-426.354 383.41"/><path d="M948.128 173.52C837.544 416.283 579.359 585.554 353.88 341.698c-134.475-145.4-100.712 96.596-215.556 286.644-274.571 455.108-330.442 2.83-436.299 376.718"/><path d="M949.036 173.951C840.633 415.678 584.814 586.303 354.658 340.944 218.19 195.559 258.203 441.091 142.259 631.683c-274.248 451.147-339.66.325-445.946 370.197"/><path d="M949.943 174.381C843.886 414.784 589.803 587.17 355.434 340.189c-138.296-145.66-92.03 103.409-209.242 294.835-274.223 447.016-349.176-2.35-455.593 363.67"/><path d="M951.153 174.985C847.278 414.352 595.098 588.212 356.68 339.321 216.556 193.386 269.206 446.449 150.43 638.54c-273.735 442.76-358.395-4.857-465.242 357.144"/><path d="M952.063 175.412c-101.695 238.33-351.807 413.378-594.606 163.15-141.952-146.209-83.049 110.393-203.39 303.15-273.413 438.798-367.319-7.197-474.893 350.618"/><path d="M952.971 175.837c-99.347 237.007-347.722 413.818-594.737 161.966-143.782-146.485-78.79 113.946-200.233 307.249-273.222 434.378-376.84-9.872-484.843 343.924"/><path d="M954.181 176.441c-97.166 235.97-343.638 414.258-594.703 160.493-145.61-146.76-74.363 117.211-197.24 311.636-272.899 430.41-386.062-12.381-494.495 337.395"/><path d="M955.09 176.87c-94.983 234.933-339.386 414.408-594.536 159.474-147.272-147.323-69.639 120.645-194.379 315.569-272.576 426.437-395.75-14.769-504.148 330.865"/><path d="M955.999 177.298c-92.635 233.608-335.003 415.016-594.667 158.289-149.101-147.598-65.378 124.2-191.22 319.669-272.087 422.184-404.975-17.278-513.802 324.335"/><path d="M957.209 177.897c-90.453 232.572-330.917 415.456-595.097 156.936-150.931-147.874-60.653 127.636-188.061 323.772-271.467 418.385-414.202-19.788-523.458 317.804"/><path d="M958.119 178.322c-88.271 231.536-326.666 415.61-594.766 155.63-152.761-148.149-56.391 131.193-185.366 327.997-270.978 414.131-423.43-22.299-533.413 311.104"/><path d="M959.331 178.92c-85.922 230.211-322.413 415.763-594.898 154.444-154.591-148.425-51.665 134.63-182.206 332.102-270.954 409.994-432.957-24.977-543.37 304.403"/><path d="M960.241 179.347c-83.738 229.175-318.325 416.204-595.03 153.258-156.719-148.868-47.235 137.9-179.343 336.039-270.166 405.906-442.186-27.488-552.731 298.036"/><path d="M961.15 179.777C879.596 407.914 647.378 596.301 366.156 331.56c-158.251-148.976-42.674 141.626-176.349 340.433-269.545 402.097-451.416-30.001-562.39 291.499"/><path d="M962.362 180.375c-79.204 226.812-309.684 416.966-595.126 150.598-160.082-149.253-38.244 144.896-173.188 344.539-269.055 397.848-460.648-32.513-572.35 284.795"/><path d="M963.273 180.803c-77.02 225.775-305.429 417.119-595.257 149.411C206.103 180.685 334.334 478.838 197.99 678.86c-268.733 393.87-470.179-35.193-582.012 278.257"/><path d="M964.183 181.232C889.346 405.968 663.141 598.96 368.794 329.455c-163.743-149.804-29.251 151.897-167.03 353.043-267.945 389.782-479.246-37.994-591.508 271.428"/><path d="M965.395 181.825C892.611 405.069 668.609 599.709 370.04 328.574 204.632 178.205 345.352 484.201 205.873 685.56c-267.324 385.98-488.814-39.932-601.638 265.009"/><path d="M966.305 182.254C895.706 404.46 673.777 600.291 370.819 327.816 203.58 177.17 350.862 486.883 209.815 688.911c-266.702 382.169-498.049-42.446-611.302 258.467"/><path d="M967.215 182.683c-68.413 221.167-288.437 418.478-595.45 144.086-169.07-150.922-15.393 162.798-157.841 365.205-266.08 378.366-507.451-44.673-621.133 252.211"/><path d="M968.427 183.282C902.365 403.123 684.248 601.915 372.846 326.18c-170.903-151.198-10.961 166.074-155.143 369.439-265.292 374.271-516.524-47.476-630.635 245.379"/><path d="M969.339 183.71c-63.876 218.803-279.921 418.787-595.712 141.711-172.735-151.475-6.229 169.517-151.979 373.55-264.503 370.169-526.059-50.159-640.302 238.834"/><path d="M970.251 184.14c-61.691 217.764-275.53 419.396-595.843 140.522-174.4-152.039-1.663 173.25-148.815 377.664-263.88 366.364-535.299-52.676-649.971 232.286"/><path d="M971.463 184.738C912.125 401.176 700.192 604.29 375.655 323.785c-176.232-152.317 3.07 176.695-146.114 381.899C-33.719 1068.24-315 650.491-430.101 931.423"/><path d="M972.375 185.168c-57.151 215.399-267.01 419.706-595.938 137.858-178.065-152.593 7.636 180.429-142.95 386.014-262.47 358.46-553.781-57.71-669.312 219.189"/><path d="M973.286 185.594c-54.964 214.36-262.75 419.861-596.069 136.669-179.897-152.869 12.37 183.876-139.785 390.131-261.847 354.646-563.023-60.228-679.282 212.471"/><path d="M974.5 186.195c-52.611 213.032-258.357 420.472-596.034 135.192-181.564-153.436 16.938 187.611-136.619 394.248-261.392 351.125-572.732-62.626-689.421 206.04"/><path d="M975.412 186.624c-50.424 211.993-254.096 420.627-596.164 134.003C195.851 166.915 400.92 511.686 245.33 719.112c-260.137 346.908-581.511-65.264-698.629 199.367"/><path d="M976.624 187.224c-48.237 210.954-249.833 420.782-596.295 132.814-185.23-153.989 26.242 194.796-130.751 402.605-259.515 343.097-591.52-67.832-708.602 192.644"/><path d="M977.537 187.656c-45.882 209.624-245.57 420.936-596.258 131.336-187.063-154.266 31.275 198.412-127.585 406.722-259.057 339.566-600.931-70.062-718.443 186.377"/><path d="M978.45 188.087c-43.694 208.584-241.008 421.257-596.387 130.145-188.73-154.831 35.845 202.151-124.882 410.963C-.324 1064.71-352.532 656.492-470.473 908.894"/><path d="M979.663 188.688c-41.506 207.544-236.744 421.413-596.517 128.956-190.564-155.109 40.581 205.601-121.715 415.083-257.18 331.533-619.26-75.391-737.63 172.974"/><path d="M980.575 189.116c-39.448 206.048-232.646 421.858-596.481 127.478-192.398-155.387 45.45 209.509-118.548 419.206-256.257 327.88-628.509-77.913-747.607 166.247"/><path d="M981.488 189.547c-37.26 205.006-227.583 421.313-596.61 126.287-193.599-156.072 50.189 212.96-115.843 423.447-255.037 324.399-637.458-80.266-756.986 159.854"/><path d="M982.702 190.15c-34.905 203.676-223.485 421.757-596.74 125.096-195.434-156.35 54.76 216.702-112.675 427.57C18.743 1062.95-373.72 659.86-493.677 895.941"/><path d="M983.614 190.582C950.9 393.217 764.396 612.493 386.746 314.487 189.479 157.86 446.377 535.098 277.24 746.18c-253.621 316.48-656.257-85.479-776.643 146.561"/><path d="M984.527 191.015c-30.525 201.593-215.118 422.354-596.532 122.593C188.894 156.704 452.663 537.84 281.36 749.257 28.495 1062.37-384.613 661.376-505.129 889.542"/><path d="M985.741 191.618c-28.168 200.263-210.85 422.509-596.66 121.402-200.936-157.181 69.241 227.976-103.632 440.063-252.074 309.007-675.358-90.861-796.305 133.264"/><path d="M986.653 192.053c-25.978 199.221-206.451 423.119-596.789 120.21-203.068-157.627 74.412 232.055-100.461 444.188C38.55 1061.98-395.208 663.066-516.583 883.147"/><path d="M987.566 192.486c-23.788 198.179-202.182 423.274-596.75 118.73-204.903-157.904 79.152 235.51-97.291 448.313-250.394 301.991-694.031-95.62-815.835 120.417"/><path d="M987.261 192.381c-23.148 194.317-202.743 425.603-598.954 120.528-205.492-158.229 74.114 231.893-100.858 442.829-250.384 301.972-690.635-89.124-804.936 126.915"/><path d="M986.954 192.273C964.147 382.561 783.351 620.037 386.26 314.479c-206.081-158.554 69.243 227.987-104.425 437.344-250.541 302.247-687.836-82.964-794.503 133.533"/><path d="M986.65 192.166C964.483 378.593 782.486 622.26 384.216 316.049c-206.67-158.88 64.504 224.54-108.159 432.151-250.83 302.05-684.738-76.638-783.904 139.86"/><path d="M986.342 192.056c-21.825 182.399-204.724 432.423-604.471 125.393-207.259-159.205 59.634 220.635-111.427 426.837C19.291 1046.9-411.198 673.973-503.029 890.762"/><path d="M986.038 191.946c-21.352 178.829-205.286 434.753-606.379 127.359-207.848-159.531 54.764 216.732-114.993 421.357-251.442 302.428-678.679-64.444-762.877 152.804"/><path d="M985.732 191.834c-21.011 174.803-205.848 437.083-608.119 129.037-208.604-159.569 50.026 213.285-118.56 415.877C7.454 1039.44-416.696 678.916-493.395 896.165"/><path d="M985.426 191.721c-20.371 170.945-206.242 439.125-610.157 130.546-209.492-160.062 45.157 209.384-122.126 410.399C1.22 1035.92-419.214 681.325-488.58 898.866"/><path d="M985.118 191.606c-20.03 166.92-207.101 441.286-611.897 132.223C163.14 163.441 413.342 529.6 247.827 728.919-4.551 1032.28-422.032 683.564-483.767 901.564"/><path d="M984.814 191.491C965.423 354.555 777.151 635.108 371.009 325.68c-210.67-160.715 35.253 201.87-128.959 399.614-252.668 303.176-666.766-39.034-721.003 178.969"/><path d="M984.507 191.373c-19.05 159.04-208.225 445.948-615.844 135.698C157.403 166.03 399.18 525.498 236.138 721.21c-252.693 303.9-663.374-32.545-710.279 185.75"/><path d="M984.201 191.259c-18.577 155.473-208.786 448.277-617.585 137.375-212.015-161.079 25.649 194.527-136.089 388.663-253.15 304.003-660.746-26.104-699.558 192.529"/><path d="M983.894 191.139c-18.235 151.45-209.347 450.608-619.492 139.34-212.605-161.405 20.615 190.917-139.357 383.359-253.439 303.822-657.785-20.242-689.266 198.683"/><path d="M983.589 191.018c-17.597 147.597-209.91 452.941-621.533 140.85-213.493-161.9 16.046 187.187-143.088 378.176-253.431 303.806-654.23-14.045-678.382 205.173"/><path d="M983.281 190.894C966.025 334.47 772.512 645.998 360.007 333.421 145.924 171.194 371.02 516.999 213.353 706.126-40.402 1010.49-438.25 698.52-454.608 917.909"/><path d="M982.975 190.771c-16.616 139.723-211.331 457.436-625.016 144.204-214.839-162.266 5.98 179.97-150.219 367.235-254.212 304.47-648.513-1.289-657.542 218.394"/><path d="M982.669 190.645c-16.442 135.991-211.893 459.769-626.925 146.17-215.429-162.594 1.411 176.241-153.485 361.933-254.8 304.122-645.556 4.571-647.256 224.547"/><path d="M982.364 190.519c-15.803 132.14-212.456 462.101-628.967 147.679-216.019-162.921-3.454 172.346-157.05 356.466-254.827 304.847-642.335 11.343-636.541 231.324"/><path d="M982.057 190.389c-15.462 128.121-213.018 464.435-630.71 149.356-216.609-163.249-8.32 168.451-160.615 351-255.284 304.953-639.545 17.49-626.125 237.932"/><path d="M981.751 190.26c-14.824 124.27-213.414 466.479-632.752 150.865-217.498-163.745-13.054 165.013-163.881 345.702-255.444 305.228-636.624 24.093-615.711 244.54"/><path d="M981.444 190.128C966.961 310.38 767.17 658.773 346.783 342.958c-218.089-164.072-17.92 161.12-167.446 340.237-255.901 305.334-633.37 30.119-605.13 250.859"/><path d="M981.136 189.998C967.292 306.4 766.299 660.977 344.731 344.505 126.052 180.104 321.78 502.02 173.721 679.277c-256.06 305.61-630.581 36.265-594.419 257.635"/><path d="M980.831 189.862c-13.504 112.386-215.4 473.314-638.448 156.017-219.436-164.44-27.518 153.79-174.575 329.309-256.22 305.885-627.364 43.034-583.708 264.41"/><path d="M980.525 189.727C967.66 298.264 764.562 665.376 340.332 347.421c-220.027-164.769-32.549 150.186-178.007 324.304-256.678 305.993-624.411 48.889-573.43 270.561"/><path d="M980.218 189.588c-12.691 104.809-216.526 477.984-642.105 159.66C117.495 184.149 300.7 495.542 156.541 668.09c-256.97 305.813-621.458 54.745-562.853 276.88"/><path d="M979.911 189.449C967.859 290.411 762.822 669.77 335.762 350.618c-221.507-165.595-42.146 142.86-185.137 313.383-256.831 306.258-618.241 61.513-552.146 283.654"/><path d="M979.604 189.307c-11.712 96.947-217.951 482.489-645.895 162.847-222.098-165.924-47.01 138.969-188.701 307.923-257.29 306.367-615.158 67.824-541.737 290.261"/><path d="M979.298 189.163c-11.073 93.1-218.515 484.827-647.809 164.814-222.856-165.966-52.04 135.367-191.968 302.632-257.749 306.477-612.672 73.799-531.462 296.412"/><path d="M978.991 189.018c-10.733 89.086-219.078 487.164-649.854 166.323-223.447-166.295-56.605 131.646-195.531 297.174-257.91 306.756-609.292 80.278-520.758 303.187"/><path d="M978.685 188.871c-10.095 85.24-219.643 489.503-651.603 168.001-224.039-166.626-61.635 128.045-199.096 291.718-258.369 306.867-606.509 86.42-510.353 309.794"/><path d="M978.377 188.723c-9.92 81.515-220.04 491.553-653.35 169.679-224.632-166.956-66.499 124.156-202.363 286.429-258.995 307.265-603.892 92.85-500.246 316.232"/><path d="M978.07 188.574c-9.282 77.67-220.604 493.893-655.563 171.478-225.522-167.454-71.064 120.436-205.928 280.974-258.692 307.424-600.347 99.039-489.377 322.718"/><path d="M977.762 188.425c-8.942 73.657-221.466 496.064-657.311 173.156-226.113-167.784-76.094 116.835-209.492 275.518-259.151 307.535-597.267 105.348-478.676 329.492"/><path d="M977.456 188.271c-8.304 69.812-222.031 498.405-659.062 174.834C91.522 195.278 237.437 476.054 105.17 633.459c-259.313 307.816-594.486 111.489-468.107 335.81"/><path d="M977.149 188.115c-7.963 65.8-222.595 500.746-661.11 176.345-227.464-168.158-85.688 109.517-216.49 265.068-259.773 307.928-591.408 117.798-457.706 342.417"/><path d="M976.843 187.959c-7.325 61.956-223.161 503.088-663.027 178.313-228.058-168.49-90.552 105.63-220.055 259.614-259.77 307.922-588.164 123.819-447.139 348.737"/><path d="M976.535 187.799c-7.151 58.233-223.726 505.431-664.779 179.991-228.65-168.821-95.581 102.033-223.62 254.164-260.231 308.035-585.552 130.248-436.739 355.344"/><path d="M976.23 187.639c-6.514 54.39-224.292 507.775-666.83 181.503C80.156 199.989 208.956 467.288 82.214 617.854c-260.261 308.774-582.177 136.725-426.041 362.12"/><path d="M975.921 187.476c-6.173 50.378-225.155 509.95-668.581 183.182C77.039 201.293 202.165 465.374 76.887 614.086c-261.021 308.721-579.565 143.154-415.94 368.56"/><path d="M975.615 187.315c-5.535 46.536-225.721 512.294-670.5 185.15C74.22 202.768 195.076 463.296 71.095 610.443-189.921 919.158-505.226 759.617-333.98 985.49"/><path d="M975.308 187.145c-5.195 42.525-226.287 514.641-672.553 186.662-231.489-170.03-115.067 87.234-237.584 232.529-261.348 309.288-573.249 155.483-394.681 381.657"/><path d="M975.001 186.978c-4.557 38.683-226.854 516.988-674.308 188.343C68.61 204.958 181.06 458.837 59.543 602.401-201.97 911.972-510.8 764.48-324.742 990.667"/><path d="M974.694 186.808c-4.383 34.96-227.254 519.045-676.228 190.311-232.678-170.696-124.663 79.92-244.42 221.799-262.105 309.232-567.697 167.764-373.72 394.587"/><path d="M974.387 186.637c-3.745 31.118-227.821 521.394-678.282 191.824C62.666 207.72 166.579 454.497 47.953 595.101c-262.271 309.517-564.161 173.953-362.861 401.077"/><path d="M974.079 186.464c-3.405 27.108-228.686 523.574-680.038 193.505C59.711 208.726 159.784 452.576 42.323 591.16c-262.435 309.802-561.254 180.55-352.465 407.687"/><path d="M973.772 186.287c-2.767 23.267-229.253 525.925-681.796 195.187-234.925-171.577-139.12 68.723-255.285 205.745C-226.207 897.14-521.79 773.91-305.38 1001.52"/><path d="M973.466 186.111c-2.427 19.256-229.82 528.274-684.017 196.988-235.52-171.912-143.984 64.838-258.554 200.465-263.064 310.207-555.41 193.001-331.51 420.626"/><path d="M973.16 185.932c-1.79 15.414-230.389 530.625-685.777 198.67C51.268 212.355 138.667 446.013 25.262 579.621c-263.527 310.326-552.34 199.31-321.116 427.239"/><path d="M972.854 185.752c-1.616 11.693-230.957 532.976-687.536 200.351C48.608 213.522 131.739 443.63 19.63 575.676c-263.693 310.614-549.27 205.62-310.722 433.844"/><path d="M972.546 185.568c-.978 7.851-231.525 535.33-689.593 201.866-237.474-172.628-158.61 53.932-268.959 184.295C-250.163 882.464-532.67 783.78-286.335 1012.19"/><path d="M972.239 185.384c-.638 3.842-232.391 537.515-691.52 203.837C42.352 216.09 117.544 439.437 8.193 568.07c-264.323 311.023-543.43 218.073-289.769 446.79"/><path d="M971.933 185.198s-232.96 539.87-693.281 205.52C39.689 217.251 110.446 437.339 2.557 564.122-262.23 875.266-537.804 788.506-276.819 1017.52"/><path d="M972.835 185.716s-233.224 538.96-691.827 207.103C42.009 220.096 110.584 437.81 2.993 564.762-261.33 875.786-533.919 787.27-279.495 1016.03"/><path d="M973.739 186.231S740.251 724.282 283.365 394.919C44.331 222.939 111.188 438.159 3.132 565.232c-263.729 311.362-533.164 220.801-285.6 449.138"/><path d="M974.644 186.748S740.893 723.889 286.021 397.187C46.952 225.951 111.627 438.798 3.869 566.039c-263.563 311.073-529.714 218.924-289.307 446.671"/><path d="M975.548 187.264S741.366 723.783 288.51 399.742C49.405 229.249 111.898 439.723 4.437 567.132c-263.231 310.499-526.396 216.593-292.849 443.918"/><path d="M976.753 187.952S742.009 723.395 291.035 401.559C51.895 231.809 112.503 440.078 4.911 567.032c-262.97 311.412-522.684 215.629-295.996 442.528"/><path d="M977.656 188.467S742.648 723.001 293.523 404.114C54.347 235.107 112.939 440.714 5.478 568.125c-262.637 310.838-519.2 213.01-299.537 439.775"/><path d="M978.56 188.98S743.288 722.606 295.879 406.211C56.668 237.948 113.078 441.182 5.616 568.594c-262.174 310.719-515.453 211.302-302.65 437.646"/><path d="M979.463 189.502S743.928 722.216 298.536 408.483C59.29 240.965 113.815 441.992 6.353 569.404-255.523 880.291-505.35 778.997-299.705 1004.75"/><path d="M980.367 190.016s-235.8 531.805-679.476 220.565C61.609 243.806 113.952 442.46 6.788 570.041c-261.711 310.6-508.255 207.718-309.469 433.049"/><path d="M981.272 190.53S745.707 720.561 303.249 412.679C64.098 246.358 114.258 442.64 7.094 570.221-254.023 881.159-497.581 776.52-305.654 1001.43"/><path d="M982.175 191.046S746.346 720.167 305.903 414.947C66.716 249.37 114.992 443.445 7.827 571.027c-260.95 310.651-501.058 204.135-316.455 428.739"/><path d="M983.079 191.559s-236.093 528.213-674.82 225.485C69.203 251.922 115.131 443.913 7.965 571.495-252.39 882.484-489.346 773.923-311.603 998.103"/><path d="M984.284 192.245s-236.358 527.306-673.369 227.07C71.823 254.935 115.568 444.554 8.7 572.305c-260.19 310.703-493.863 200.553-323.277 424.144"/><path d="M985.188 192.758s-236.92 526.229-671.619 228.823C74.442 257.944 116.469 445.069 9.434 573.109c-260.026 310.417-490.712 198.51-326.687 421.845"/><path d="M986.092 193.274S748.908 718.593 315.926 423.68C76.764 260.787 116.608 445.538 9.573 573.579c-259.431 310.754-486.666 196.97-329.8 419.714"/><path d="M986.995 193.785S749.547 718.197 318.281 425.776c-239.198-162.15-201.536 20.229-308.108 148.15-259.432 310.756-483.384 195.383-333.376 417.705"/><path d="M987.9 194.297S750.187 717.801 320.769 428.329C81.535 266.922 117.313 447.095 10.741 575.017-248.36 885.199-469.16 767.781-326.178 989.968"/><path d="M988.803 194.812S750.826 717.407 323.125 430.428c-239.27-160.663-205.508 16.848-312.247 145.06-258.339 310.231-475.854 191.223-339.733 412.987"/><path d="M989.707 195.326S751.466 717.013 325.78 432.695C86.475 272.774 118.054 447.912 11.613 576.292-246.43 886.693-460.793 765.64-331.83 986.814"/><path d="M990.611 195.837S751.807 716.448 328.135 434.79C89.092 275.781 118.488 448.546 12.046 576.927-245.83 887.042-456.91 764.399-334.807 985.151"/><path d="M991.815 196.518S752.746 716.223 330.789 437.057C91.411 278.622 118.923 449.182 12.647 577.277c-257.582 310.286-465.676 185.886-350.431 406.216"/><path d="M992.719 197.031S753.386 715.828 333.444 439.322C94.03 281.631 119.526 449.529 13.381 578.081c-257.583 310.288-462.227 184.011-353.842 403.918"/><path d="M993.623 197.541s-239.598 517.89-657.824 243.877C96.349 284.469 119.96 450.163 13.516 578.547c-256.822 310.339-458.313 182.016-356.955 401.789"/><path d="M994.527 198.053S754.498 715.324 338.154 443.515C98.669 287.309 120.098 450.629 13.951 579.183c-256.359 310.221-454.567 180.308-360.367 399.491"/><path d="M995.43 198.561S755.136 714.925 340.806 445.776C101.284 290.312 120.53 451.26 14.383 579.815-241.978 890.04-436.736 758.248-349.395 977.009"/><path d="M996.335 199.073s-240.857 515.289-653.172 248.8c-239.558-154.72-222.03 3.734-328.178 132.29-256.065 310.395-447.538 177.014-367.058 395.352"/><path d="M997.239 199.581S756.118 713.964 345.517 449.967c-239.594-153.977-224.249 2.104-330.1 130.829-255.601 310.278-444.089 175.139-370.469 393.055"/><path d="M998.143 200.09S756.757 713.565 348.004 452.518c-239.631-153.235-226.468.473-332.32 129.199-254.972 309.872-440.01 172.855-373.715 390.47"/><path d="M999.348 200.767S757.695 713.339 350.657 454.782c-239.668-152.493-228.389-.99-334.242 127.739C-238.56 892.398-420.446 753.334-361.01 970.528"/><path d="M1000.25 201.275S758.168 713.229 353.309 457.044c-239.704-151.751-230.442-2.909-336.461 126.11-254.513 309.76-433.413 168.938-380.541 385.878"/><path d="M1001.16 201.783S758.807 712.831 355.664 459.138c-239.74-151.008-232.661-4.539-338.383 124.649C-236.77 893.43-412.386 751.018-366.672 967.368"/><path d="M1002.06 202.287S759.147 712.262 358.017 461.229c-239.777-150.266-234.582-6.002-340.14 122.9-253.754 309.815-426.218 165.356-387.532 381.573"/><path d="M1002.96 202.793s-243.175 509.07-642.292 260.696c-239.98-149.235-236.802-7.632-342.36 121.271-253.757 309.82-422.639 163.938-390.945 379.278"/><path d="M1003.87 203.296S760.258 711.75 363.023 465.579c-240.017-148.493-238.558-9.383-344.283 119.81-253.295 309.704-419.025 161.775-394.358 376.982"/><path d="M1004.77 203.803s-243.874 507.548-639.394 263.87c-240.054-147.75-240.777-11.014-346.205 118.349-252.999 309.875-415.279 160.068-397.473 374.853"/><path d="M1005.67 204.304S761.534 710.949 368.026 469.93C127.935 322.921 125.029 457.285 19.6 586.65c-252.538 309.76-411.832 158.193-400.887 372.558"/><path d="M1006.88 204.977S762.306 711.008 370.679 472.191C130.55 325.924 125.759 458.083 20.495 587.162-232.046 896.928-388.056 743.77-384.27 957.546"/><path d="M1007.78 205.476s-245.135 504.96-634.75 268.802C132.864 328.753 126.056 458.251 20.625 587.621-231.157 897.44-384.182 742.523-387.257 955.878"/><path d="M1008.69 205.979S763.284 710.035 375.515 476.825C135.313 332.042 126.322 459.167 21.187 588.707-230.431 898.243-380.005 741.445-389.942 954.38"/><path d="M1009.59 206.477S763.755 709.919 377.866 478.912C137.626 334.87 126.75 459.791 21.614 589.333c-251.157 309.421-397.746 150.864-414.545 363.379"/><path d="M1010.5 206.974S764.393 709.513 380.518 481.165C140.074 338.154 127.181 460.413 22.044 589.958c-250.862 309.594-394 149.157-418.125 361.371"/><path d="M1011.4 207.47S764.864 709.398 382.867 483.251c-240.482-142.27-255.391-22.672-360.232 107.044-250.866 309.603-390.554 147.284-421.542 359.079"/><path d="M1012.3 207.963s-247.098 500.86-627.084 277.371C144.696 343.804 127.901 461.198 22.76 590.75c-250.405 309.489-386.94 145.121-424.659 356.953"/><path d="M1013.21 208.461S765.34 709.284 387.866 487.589C146.975 347.378 128.33 461.823 23.486 591.544-226.458 900.919-359.711 734.959-404.59 946.203"/><path d="M1014.41 209.121s-248.133 499.926-623.896 280.72C149.585 350.37 128.756 462.443 24.208 592.336c-249.948 309.384-380.049 141.373-431.791 352.2"/><path d="M1015.32 209.612S766.913 708.639 392.864 491.923c-240.968-138.73-263.516-29.151-368.53 100.867-249.191 309.439-376.008 139.835-434.91 350.075"/><path d="M1016.22 210.102s-248.836 498.416-620.708 284.07C154.505 356.183 129.773 463.39 25.055 593.578-223.971 902.738-347.803 731.372-413.27 941.36"/><path d="M1017.12 210.589S768.019 708.108 397.859 496.251c-241.046-137.249-267.961-32.414-372.515 97.49-248.436 309.504-368.984 136.544-441.613 345.946"/><path d="M1018.03 211.07S768.357 707.527 400.206 498.326C159.12 361.817 130.319 464.447 25.763 594.357-222.514 903.584-339.612 728.74-419.403 937.558"/><path d="M1018.93 211.554S768.992 707.113 402.685 500.858c-241.124-135.769-271.943-35.799-376.37 94.57C-221.5 904.544-335.611 727.937-422.267 936.336"/><path d="M1019.84 212.03S769.627 706.695 405.031 502.929C163.867 367.9 130.864 465.497 26.436 595.871c-247.822 309.127-358.484 130.636-451.873 339.074"/><path d="M1019.54 211.893S769.865 704.933 406.502 501.1c-33.382-18.797-62.696-33.009-88.967-43.598-160.973-63.887-198.791 22.205-289.15 132.981C-35.38 668.846-80.374 715.357-128.153 746.16c-82.477 53.304-140.346 57.789-193.316 81.848-38.267 17.051-73.236 42.075-101.693 107.834"/><path d="M1018.93 211.585S769.502 702.83 407.207 499.219c-33.083-18.628-62.23-33.128-88.5-43.717-158.946-64.656-198.088 20.306-288.84 129.709-67.083 80.694-104.285 127.387-154.088 158.96-83.369 52.799-137.133 61.123-192.162 86.697-39.229 18.037-77.309 40.925-104.671 106.151"/><path d="M1018.63 211.442S769.44 700.896 408.212 497.506c-32.785-18.46-61.931-32.96-88.035-43.836-157.085-65.137-197.681 18.239-288.827 126.27-69.938 82.905-99.813 129.901-151.341 162.412-83.964 52.461-134.22 64.289-191.306 91.377-40.193 19.022-81.682 39.608-107.948 104.303"/><path d="M1018.03 211.132S769.377 698.959 409.382 495.503c-32.784-18.459-61.465-33.079-87.568-43.955-155.391-65.329-197.276 16.172-288.516 122.999-72.96 85.403-94.876 132.292-148.725 165.406-84.725 52.412-131.307 67.454-190.451 96.057-41.322 20.296-86.387 38.867-111.258 103.198"/><path d="M1017.73 210.992s-248.414 486.035-607.342 282.8c-32.486-18.291-61-33.199-87.103-44.075-153.531-65.809-196.869 14.106-288.503 119.561-76.278 87.735-90.404 134.806-146.276 168.689-85.319 52.076-128.394 70.62-189.464 101.194-42.118 20.993-90.592 37.261-114.07 101.228"/><path d="M1017.12 210.68S769.252 695.09 411.557 491.788c-32.187-18.122-60.7-33.03-86.636-44.194-151.837-66.001-196.762 11.872-288.657 116.411-79.3 90.234-85.931 137.319-143.528 172.139-85.914 51.739-125.315 73.496-188.609 105.874-43.081 21.978-94.666 36.111-117.346 99.379"/><path d="M1016.82 210.54S769.191 693.157 412.563 490.076c-31.888-17.954-60.235-33.149-86.17-44.312-149.678-66.314-196.355 9.805-288.346 113.14-82.617 92.564-81.459 139.831-141.079 175.421-86.674 51.69-122.401 76.661-187.752 110.553-44.044 22.963-99.204 35.083-120.491 97.987"/><path d="M1016.22 210.223S768.829 691.05 413.267 488.19c-31.888-17.953-59.936-32.981-85.836-44.888-147.985-66.506-196.249 7.571-288.334 109.703-85.639 95.063-76.69 142.512-138.333 178.872-87.269 51.353-119.488 79.826-186.6 115.401-45.006 23.948-103.576 33.765-123.767 96.138"/><path d="M1015.92 210.087S769.065 689.289 414.737 486.362c-31.423-18.073-59.471-33.1-85.37-45.007-146.291-66.698-196.141 5.337-288.023 106.432-88.957 97.394-72.218 145.024-135.884 182.155-88.029 51.303-116.575 82.99-185.91 120.367-46.268 24.765-107.947 32.449-126.745 94.458"/><path d="M1015.31 209.775S768.704 687.184 415.443 484.479c-31.125-17.905-59.172-32.932-84.905-45.127-144.43-67.178-195.734 3.272-288.01 102.995-92.275 99.724-67.746 147.537-132.97 185.316-88.624 50.967-113.496 85.866-185.055 125.046-47.23 25.751-112.187 31.588-129.889 93.066"/><path d="M1015.01 209.637S768.941 685.422 416.746 482.938c-31.123-17.905-58.706-33.051-84.438-45.246-142.737-67.37-195.627 1.038-287.998 99.558-95.296 102.221-63.275 150.048-130.52 188.597-88.921 50.797-110.584 89.03-183.902 129.892-48.192 26.735-116.558 30.271-133.164 91.217"/><path d="M1014.41 209.327S768.58 683.319 417.62 480.768c-30.826-17.736-58.407-32.882-83.973-45.365-141.043-67.561-195.518-1.195-287.686 96.289C-52.653 636.243-12.545 684.419-82.112 723.57c-89.681 50.749-107.671 92.194-183.046 134.569-49.023 28.177-120.797 29.411-136.01 89.993"/><path d="M1014.11 209.179S768.517 681.382 418.622 479.052c-30.527-17.568-57.942-33.002-83.507-45.484-139.35-67.754-195.71-3.597-287.675 92.852C-54.493 633.302-6.595 681.66-77.887 721.748c-90.276 50.412-104.759 95.359-182.358 139.537-50.118 28.705-125.299 27.638-139.417 87.689"/><path d="M1013.5 208.876S768.455 679.451 419.794 477.055c-30.228-17.399-57.477-33.121-83.041-45.603-137.489-68.233-195.601-5.829-287.363 89.583C-55.86 630.246.125 678.953-73.487 719.643c-91.036 50.363-101.68 98.233-181.204 144.381-51.08 29.69-129.538 26.777-142.56 86.296"/><path d="M1013.2 208.733s-244.807 468.785-592.402 266.61c-30.227-17.399-57.177-32.953-82.575-45.723-135.796-68.425-195.493-8.062-287.517 86.435C-57.862 627.596 5.911 676.486-69.425 718.113c-91.499 50.482-98.768 101.396-180.349 149.058-52.174 30.219-133.908 25.461-145.669 84.161"/><path d="M1012.6 208.423S768.328 675.584 421.8 473.63c-29.928-17.23-56.711-33.071-82.108-45.841-133.805-68.449-195.219-10.584-287.206 83.166C-59.234 624.537 12.16 673.896-65.031 716.004c-92.092 50.145-95.855 104.56-179.361 154.191-53.435 31.036-138.577 23.977-148.944 82.313"/><path d="M1012.3 208.29S768.268 673.657 422.974 471.637c-29.63-17.062-56.413-32.903-81.643-45.96-132.111-68.641-195.408-12.984-287.192 79.73-115.037 115.911-35.556 165.619-114.77 208.496-92.853 50.096-92.777 107.434-178.506 158.866-54.265 32.477-142.517 23.285-151.789 81.089"/><path d="M1011.7 207.966S767.906 671.545 423.677 469.745c-29.63-17.061-55.948-33.022-81.476-46.247-130.418-68.834-195.301-15.217-287.18 76.294C-63.334 618.033 23.935 667.923-57.302 711.57c-93.149 49.927-89.865 110.597-177.651 163.544-55.227 33.461-146.887 21.968-154.932 79.698"/><path d="M1011.39 207.833S768.144 669.787 424.982 468.209c-29.166-17.181-55.649-32.853-80.844-46.654-128.724-69.025-195.491-17.617-286.87 73.026-121.67 120.57-26.317 170.81-109.874 215.058-93.909 49.878-86.952 113.759-176.497 168.386-56.19 34.446-151.257 20.652-158.207 77.851"/><path d="M1010.79 207.521S767.781 667.684 425.851 466.039c-28.866-17.013-55.183-32.973-80.377-46.774-127.032-69.217-195.383-19.849-286.857 69.591C-66.37 611.755 36.77 662.176-48.51 707.361c-94.372 49.998-84.041 116.922-175.511 173.518-57.45 35.262-155.792 19.625-161.481 76.003"/><path d="M1010.49 207.384S768.017 665.925 427.154 464.501c-28.568-16.845-54.884-32.805-79.912-46.893-125.04-69.241-195.574-22.249-286.546 66.324-128.604 125.06-17.247 176.286-104.514 221.497-94.967 49.66-80.964 119.796-174.954 178.026-58.413 36.246-159.864 18.476-164.458 74.323"/><path d="M1009.89 207.073S767.657 663.82 428.027 462.33c-28.567-16.844-54.418-32.924-79.445-47.011-123.347-69.433-195.597-24.938-286.533 62.888C-69.871 605.595 49.272 657.003-39.719 703.15c-95.56 49.323-78.052 122.957-173.8 182.868-59.541 37.519-164.863 17.569-167.766 73.221"/><path d="M1009.59 206.932S767.595 661.89 429.032 460.62c-28.269-16.676-54.12-32.755-78.981-47.131-121.654-69.624-195.489-27.169-286.52 59.454-135.369 129.261-8.01 181.474-99.32 228.223-96.023 49.442-74.974 125.831-172.946 187.543-60.503 38.503-168.637 16.588-170.742 71.541"/><path d="M1008.98 206.622S767.532 659.955 430.035 458.908c-27.97-16.508-53.654-32.875-78.514-47.25-119.961-69.816-195.678-29.568-286.375 56.475-138.685 131.588-3.54 183.983-96.575 231.668-96.782 49.393-72.36 128.824-172.255 192.504-61.299 39.199-173.137 14.817-173.85 69.406"/><path d="M1008.68 206.485S767.969 657.163 431.206 456.913c-27.97-16.507-53.356-32.706-78.049-47.368-118.434-69.72-195.869-31.968-286.362 53.04-142.3 133.749 1.226 186.661-94.127 234.947-97.08 49.225-69.45 131.986-171.103 197.347-62.559 40.016-177.208 13.669-176.826 67.727"/><path d="M1008.08 206.175S767.906 655.228 432.21 455.201c-27.671-16.339-52.89-32.825-77.582-47.488-116.444-69.743-195.892-34.655-286.051 49.774-145.615 136.077 5.695 189.169-91.68 238.224-97.839 49.176-66.371 134.859-170.247 202.02-63.52 40.999-181.742 12.641-179.967 66.336"/><path d="M1007.78 206.029S767.844 653.295 433.213 453.487c-27.207-16.459-52.591-32.656-77.415-47.774-114.751-69.936-196.083-37.054-286.04 46.34C-79.306 590.003 80.22 643.901-19.01 693.437c-98.302 49.295-63.461 138.021-169.393 206.695-64.483 41.984-186.112 11.326-183.242 64.49"/><path d="M1007.17 205.718S767.482 651.193 434.084 451.319c-26.909-16.292-52.127-32.777-76.95-47.894-113.059-70.127-196.273-39.453-286.027 42.907-152.678 140.11 14.93 194.357-86.321 244.662-98.896 48.958-60.55 141.181-168.407 211.824-65.278 42.679-190.181 10.178-186.217 62.811"/><path d="M1006.87 205.585S767.719 649.436 435.387 449.783c-26.908-16.29-51.827-32.607-76.483-48.012-111.532-70.031-195.999-41.972-285.716 39.64-156.291 142.27 19.53 197.322-83.576 248.107-99.357 49.077-57.472 144.053-167.55 216.496-66.24 43.663-194.716 9.151-189.49 60.965"/><path d="M1006.27 205.272S767.357 647.333 436.258 447.613c-26.609-16.122-51.362-32.727-76.018-48.131-109.839-70.222-196.188-44.371-285.703 36.207C-85.2 579.83 98.834 635.687-6.59 687.074c-100.12 49.028-54.563 147.213-166.4 221.336-67.5 44.479-199.083 7.835-192.632 59.574"/><path d="M1005.67 204.969S767.294 645.406 437.262 445.908c-26.311-15.954-51.063-32.558-75.386-48.538-108.313-70.125-196.378-46.768-285.391 32.942-163.351 146.3 28.765 202.505-78.383 254.828-100.414 48.859-51.651 150.373-165.543 226.008-68.461 45.462-203.45 6.52-195.606 57.895"/><path d="M1005.37 204.822S767.234 643.469 438.268 444.193c-26.013-15.786-50.765-32.39-74.921-48.658-106.322-70.149-196.568-49.167-285.545 29.797-166.798 148.172 33.531 205.182-75.936 258.106-101.174 48.811-48.574 153.245-164.854 230.968-69.423 46.446-207.686 5.661-198.879 56.05"/><path d="M1004.76 204.52S766.872 641.377 439.436 442.202c-26.012-15.786-50.299-32.509-74.454-48.777-104.63-70.341-196.592-51.853-285.234 26.533-170.412 150.33 38.296 207.857-73.323 261.093-101.636 48.93-45.962 156.237-163.701 235.807-70.384 47.43-212.053 4.346-201.854 54.372"/><path d="M1004.46 204.376s-237.851 436.1-564.02 236.113c-25.714-15.617-50-32.34-73.989-48.895-103.104-70.245-196.782-54.251-285.222 23.1-174.025 152.49 42.764 210.365-70.578 264.538C-91.58 727.825-32.4 838.628-152.195 919.711c-71.81 48.534-216.885 3.151-205.293 52.814"/><path d="M1003.86 204.06S766.246 638.372 441.143 438.606c-25.416-15.449-49.536-32.46-73.524-49.015-101.578-70.148-196.806-56.937-285.21 19.668-177.471 154.362 47.364 213.33-68.131 267.816-102.692 48.712-39.975 162.268-161.991 245.151-72.606 49.229-220.789 1.716-208.269 51.136"/><path d="M1003.56 203.932S766.486 636.618 442.616 436.787c-25.415-15.449-49.236-32.291-73.356-49.301-99.885-70.339-196.994-59.334-284.896 16.403-181.215 156.064 52.127 216.004-65.388 271.258-103.451 48.663-37.064 165.426-161.003 250.275-73.567 50.212-225.022.857-211.242 49.458"/><path d="M1002.95 203.612S766.121 634.511 443.317 434.9c-25.117-15.281-48.938-32.123-72.891-49.42-98.062-70.076-197.185-61.732-284.885 12.971C-99.288 556.675 142.136 616.964 22.6 672.987c-103.748 48.495-34.155 168.586-160.15 254.947-74.528 51.196-229.389-.457-214.514 47.613"/><path d="M1002.65 203.483s-236.421 428.82-557.861 229.599c-24.819-15.113-48.473-32.242-72.425-49.539-96.37-70.267-197.507-64.584-284.574 9.708-188.572 159.926 61.359 221.187-60.03 277.69-104.21 48.613-31.078 171.455-159.294 259.615-75.49 52.179-233.755-1.772-217.655 46.223"/><path d="M1002.05 203.172S766.163 630.369 445.492 431.201c-24.52-14.944-48.174-32.073-71.959-49.657-94.844-70.17-197.398-66.813-284.56 6.276-192.184 162.085 65.957 224.15-57.584 280.965C-73.582 717.35 3.22 843.398-126.752 933.237c-76.618 53.451-238.156-2.342-220.795 44.834"/><path d="M1001.75 203.024s-235.648 425.41-555.255 226.462c-24.353-15.231-47.709-32.192-71.494-49.776-93.318-70.074-197.886-69.378-284.714 3.133-195.929 163.788 70.424 226.658-55.138 284.242-105.265 48.395-25.39 177.317-157.453 269.411-77.711 53.978-242.356-3.945-223.901 42.701"/><path d="M1001.14 202.722S766.039 626.508 447.666 427.495c-24.055-15.064-47.41-32.024-71.028-49.895-91.793-69.977-197.91-72.063-284.403-.13-199.671 165.489 75.188 229.33-52.394 287.683-106.025 48.346-22.48 180.473-156.597 274.078-78.97 54.794-246.722-5.259-226.874 41.024"/><path d="M1000.84 202.585S765.978 624.582 448.671 425.79c-23.757-14.896-47.112-31.855-70.397-50.302-90.101-70.169-198.099-74.459-284.39-3.561-203.414 167.193 79.952 232.005-49.948 290.958-106.486 48.466-19.57 183.632-155.444 278.916-79.931 55.776-251.254-6.286-230.014 39.634"/><path d="M1000.24 202.279S765.618 622.484 449.676 424.082c-23.756-14.895-46.646-31.974-69.931-50.42-88.575-70.072-198.122-77.143-284.078-6.824-207.323 169.182 84.549 234.966-47.203 294.398-107.246 48.417-16.496 186.5-154.756 283.87-80.892 56.754-255.32-7.432-233.284 37.789"/><path d="M999.938 202.137S765.853 620.723 450.844 422.086c-23.458-14.727-46.348-31.806-69.466-50.54-87.05-69.976-198.313-79.54-284.067-10.254-211.066 170.885 89.015 237.474-44.591 297.387-108.172 48.656-14.05 189.779-154.068 288.827-81.687 57.454-259.686-8.746-236.258 36.113"/><path d="M999.336 201.825S765.492 618.623 451.548 420.207c-23.159-14.559-46.048-31.637-69.298-50.826-85.524-69.879-198.336-82.224-284.053-13.684-214.81 172.587 93.778 240.147-41.848 300.828C-51.655 704.892 45.374 849.173-96.4 949.9c-82.516 58.89-263.919-9.605-239.398 34.724"/><path d="M999.034 201.688S765.728 616.865 452.851 418.67c-22.862-14.391-45.751-31.469-68.833-50.945-83.999-69.782-198.824-84.787-283.743-16.946-218.552 174.29 98.542 242.821-39.402 304.103-108.764 48.318-7.9 195.517-151.894 298.042-83.907 59.256-268.582-11.086-242.669 32.879"/><path d="M998.431 201.378s-233.064 413.388-544.71 215.126c-22.861-14.391-45.285-31.588-68.367-51.064-82.474-69.686-198.848-87.471-283.73-20.375-222.294 175.991 103.138 245.781-36.957 307.376-109.225 48.437-4.99 198.673-150.907 303.165-84.868 60.234-272.649-12.233-245.642 31.202"/><path d="M998.129 201.241S765.305 612.84 455.023 414.968c-22.562-14.223-44.986-31.42-67.902-51.183-80.948-69.589-199.037-89.867-283.585-23.349-226.334 177.525 107.604 248.287-34.213 310.817-109.818 48.1-2.082 201.83-150.052 307.831-85.961 60.766-277.312-13.713-249.045 28.903"/><path d="M997.528 200.934s-232.285 409.977-541.632 211.87c-22.265-14.054-44.688-31.25-67.437-51.301-79.256-69.781-199.06-92.55-283.571-26.778C-125.188 513.951 217.385 586.14 73.12 648.814c-110.28 48.219.993 204.698-149.197 312.497-86.492 62.369-281.246-14.404-251.587 27.85"/><path d="M997.225 200.798S765.181 608.986 456.9 411.101c-22.098-14.342-44.223-31.37-66.971-51.42-77.732-69.684-199.25-94.945-283.261-30.039-234.115 180.76 116.962 253.919-28.858 317.241-110.742 48.338 3.901 207.854-148.045 317.33-87.75 63.187-285.907-15.885-255.321 26.127"/><path d="M996.623 200.487S731.005 666.84 391.562 357.564c-76.206-69.587-199.571-97.795-283.247-33.468-237.857 182.462 121.724 256.592-26.413 320.514C-29.6 692.9 88.712 855.62-65.454 966.894c-89.009 63.996-290.14-16.743-258.294 24.45"/></g></g><defs><clipPath id="clip0"><path fill="#fff" d="M0 0h1440v912H0z"/></clipPath><clipPath id="clip1"><path fill="#fff" transform="translate(-482 -653)" d="M0 0h2239.47v2025.08H0z"/></clipPath></defs></svg>