<svg width="169" height="146" fill="none" xmlns="http://www.w3.org/2000/svg"><g clip-path="url(#clip0)" filter="url(#filter0_di)"><path d="M20.02 104.049c-7.475-3.012-11.96-11.043-12.956-19.075-.499-8.031 1.993-16.063 5.481-23.592 9.469-19.576 25.915-35.64 44.852-44.674C76.832 7.17 99.258 4.66 120.189 9.178c8.472 2.008 17.442 5.02 23.921 11.043 10.465 9.036 14.95 24.094 13.954 38.15-.997 14.054-6.479 27.607-12.958 39.654-4.983 9.537-10.465 18.573-18.439 26.102-7.973 7.028-18.438 12.047-28.904 11.043-21.927-1.506-36.878-26.102-58.805-28.611-6.479-1.004-12.957 0-18.937-2.51z" fill="url(#paint0_linear)"/><path d="M80.249 65.683l-6.988-12.138a5.404 5.404 0 01-.534-4.088 5.389 5.389 0 012.504-3.271 5.361 5.361 0 014.077-.54 5.377 5.377 0 013.263 2.509l10.75 18.674" stroke="#fff" stroke-width="3" stroke-linecap="round" stroke-linejoin="round"/><path d="M72.014 72.941l-10.212-17.74a5.402 5.402 0 011.965-7.367 5.364 5.364 0 017.344 1.977l9.138 15.872" stroke="#fff" stroke-width="3" stroke-linecap="round" stroke-linejoin="round"/><path d="M89.387 81.556a10.808 10.808 0 01-1.074-8.181 10.777 10.777 0 015.008-6.547l-2.687-4.668a5.401 5.401 0 011.965-7.368 5.364 5.364 0 017.345 1.977l5.375 9.337a21.611 21.611 0 012.151 16.364 21.594 21.594 0 01-3.71 7.547 21.522 21.522 0 01-6.308 5.548 21.46 21.46 0 01-16.317 2.154 21.475 21.475 0 01-7.525-3.723 21.542 21.542 0 01-5.53-6.327l-10.213-17.74a5.404 5.404 0 01-.535-4.09 5.389 5.389 0 012.504-3.27 5.362 5.362 0 014.077-.54 5.377 5.377 0 013.264 2.509l4.837 8.403m-2.22 28.747a30.034 30.034 0 01-8.894-9.706m34.4-46.627c2.454 0 4.864.648 6.988 1.878 2.124 1.23 3.888 3 5.113 5.132" stroke="#fff" stroke-width="3" stroke-linecap="round" stroke-linejoin="round"/></g><defs><linearGradient id="paint0_linear" x1="36.554" y1="17.013" x2="138.765" y2="118.489" gradientUnits="userSpaceOnUse"><stop offset=".001" stop-color="#E608C2"/><stop offset="1" stop-color="#2011FF"/></linearGradient><clipPath id="clip0"><path fill="#fff" transform="translate(7 7)" d="M0 0h151v128H0z"/></clipPath><filter id="filter0_di" x="0" y="0" width="169" height="146" filterUnits="userSpaceOnUse" color-interpolation-filters="sRGB"><feFlood flood-opacity="0" result="BackgroundImageFix"/><feColorMatrix in="SourceAlpha" values="0 0 0 0 0 0 0 0 0 0 0 0 0 0 0 0 0 0 127 0"/><feOffset dx="2" dy="2"/><feGaussianBlur stdDeviation="4.5"/><feColorMatrix values="0 0 0 0 0 0 0 0 0 0 0 0 0 0 0 0 0 0 0.25 0"/><feBlend in2="BackgroundImageFix" result="effect1_dropShadow"/><feBlend in="SourceGraphic" in2="effect1_dropShadow" result="shape"/><feColorMatrix in="SourceAlpha" values="0 0 0 0 0 0 0 0 0 0 0 0 0 0 0 0 0 0 127 0" result="hardAlpha"/><feOffset dx="10" dy="-6"/><feGaussianBlur stdDeviation="5"/><feComposite in2="hardAlpha" operator="arithmetic" k2="-1" k3="1"/><feColorMatrix values="0 0 0 0 1 0 0 0 0 1 0 0 0 0 1 0 0 0 0.25 0"/><feBlend in2="shape" result="effect2_innerShadow"/></filter></defs></svg>