<svg width="169" height="146" fill="none" xmlns="http://www.w3.org/2000/svg"><g clip-path="url(#clip0)" filter="url(#filter0_di)"><path d="M20.02 104.049c-7.475-3.012-11.96-11.043-12.956-19.075-.499-8.031 1.993-16.063 5.481-23.592 9.469-19.576 25.915-35.64 44.852-44.674C76.832 7.17 99.258 4.66 120.189 9.178c8.472 2.008 17.442 5.02 23.921 11.043 10.465 9.036 14.95 24.094 13.954 38.15-.997 14.054-6.479 27.607-12.958 39.654-4.983 9.537-10.465 18.573-18.439 26.102-7.973 7.028-18.438 12.047-28.904 11.043-21.927-1.506-36.878-26.102-58.805-28.611-6.479-1.004-12.957 0-18.937-2.51z" fill="url(#paint0_linear)"/><path d="M103.984 92.774a180.824 180.824 0 01-40.968 0c-2.365-.282-4.684-2.565-5.06-5.03a115.187 115.187 0 010-33.666c.377-2.466 2.695-4.749 5.06-5.03a180.824 180.824 0 0140.968 0c2.364.281 4.684 2.564 5.06 5.03a115.173 115.173 0 010 33.666c-.376 2.465-2.695 4.749-5.06 5.03z" stroke="#fff" stroke-width="3" stroke-linecap="round" stroke-linejoin="round"/><path d="M92.125 70.91l-12.938-8.977v17.955l12.938-8.978z" stroke="#fff" stroke-width="3" stroke-linecap="round" stroke-linejoin="round"/></g><defs><linearGradient id="paint0_linear" x1="36.554" y1="17.013" x2="138.765" y2="118.489" gradientUnits="userSpaceOnUse"><stop offset=".001" stop-color="#E608C2"/><stop offset="1" stop-color="#2011FF"/></linearGradient><clipPath id="clip0"><path fill="#fff" transform="translate(7 7)" d="M0 0h151v128H0z"/></clipPath><filter id="filter0_di" x="0" y="0" width="169" height="146" filterUnits="userSpaceOnUse" color-interpolation-filters="sRGB"><feFlood flood-opacity="0" result="BackgroundImageFix"/><feColorMatrix in="SourceAlpha" values="0 0 0 0 0 0 0 0 0 0 0 0 0 0 0 0 0 0 127 0"/><feOffset dx="2" dy="2"/><feGaussianBlur stdDeviation="4.5"/><feColorMatrix values="0 0 0 0 0 0 0 0 0 0 0 0 0 0 0 0 0 0 0.25 0"/><feBlend in2="BackgroundImageFix" result="effect1_dropShadow"/><feBlend in="SourceGraphic" in2="effect1_dropShadow" result="shape"/><feColorMatrix in="SourceAlpha" values="0 0 0 0 0 0 0 0 0 0 0 0 0 0 0 0 0 0 127 0" result="hardAlpha"/><feOffset dx="10" dy="-6"/><feGaussianBlur stdDeviation="5"/><feComposite in2="hardAlpha" operator="arithmetic" k2="-1" k3="1"/><feColorMatrix values="0 0 0 0 1 0 0 0 0 1 0 0 0 0 1 0 0 0 0.25 0"/><feBlend in2="shape" result="effect2_innerShadow"/></filter></defs></svg>